<?xml version="1.0" standalone="no"?>
<!DOCTYPE svg PUBLIC "-//W3C//DTD SVG 1.1//EN" "http://www.w3.org/Graphics/SVG/1.1/DTD/svg11.dtd" >
<svg xmlns="http://www.w3.org/2000/svg">
<metadata></metadata>
<defs>
<font id="bembosemibold" horiz-adv-x="1107" >
<font-face units-per-em="2048" ascent="1536" descent="-512" />
<missing-glyph horiz-adv-x="681" />
<glyph horiz-adv-x="0" />
<glyph horiz-adv-x="0" />
<glyph unicode="&#xd;" horiz-adv-x="512" />
<glyph unicode=" "  horiz-adv-x="681" />
<glyph unicode="&#x09;" horiz-adv-x="681" />
<glyph unicode="&#xa0;" horiz-adv-x="681" />
<glyph unicode="!" horiz-adv-x="591" d="M160 90q0 53 39 86t98 33t97 -33t38 -86t-37 -83t-98 -30q-63 0 -100 30t-37 83zM174 1300q0 23 12.5 28t57.5 5h104q43 0 55.5 -5t12.5 -28v-16t-2 -16l-92 -871h-52l-94 871q0 12 -1 19t-1 13z" />
<glyph unicode="&#x22;" horiz-adv-x="1136" d="M276 1190q0 53 30 85t77 32t79 -31t32 -78q0 -18 -6.5 -55t-16.5 -84l-65 -293h-41l-70 293q-8 35 -13.5 70.5t-5.5 60.5zM643 1190q0 53 29.5 85t77.5 32q47 0 78.5 -31t31.5 -78q0 -18 -6 -55t-16 -84l-66 -293h-41l-69 293q-8 35 -13.5 70.5t-5.5 60.5z" />
<glyph unicode="#" horiz-adv-x="1368" d="M86 340v143h219l74 351h-293v143h322l86 397h143l-86 -397h399l84 397h144l-84 -397h188v-143h-215l-74 -351h289v-143h-317l-84 -395h-144l84 395h-401l-84 -395h-143l83 395h-190zM449 483h401l74 351h-402z" />
<glyph unicode="$" horiz-adv-x="995" d="M76 221q0 37 26.5 64.5t63.5 27.5q41 0 57.5 -27.5t29.5 -67.5t35.5 -83t73.5 -72v537q-137 86 -194 161t-57 169q0 104 64.5 175t186.5 97v127h48v-121q35 4 73.5 4t85.5 -4v121h47v-127q55 -10 102.5 -30.5t82.5 -48t54 -58.5t19 -64q0 -35 -23.5 -58t-55.5 -23 q-31 0 -50.5 19t-38 48t-39 61.5t-51.5 57.5v-418q84 -49 142.5 -93t94.5 -89t51.5 -93t15.5 -104q0 -123 -81 -208t-223 -113v-193h-47v187q-31 -4 -52 -5.5t-50 -1.5h-24.5t-32.5 5v-185h-48v193q-59 10 -111 33.5t-91 55.5t-61.5 69.5t-22.5 74.5zM268 1004 q0 -90 94 -158v295q-94 -45 -94 -137zM410 43q33 -12 80 -11t79 11v430l-159 96v-526zM410 811l159 -96v424q-29 14 -70.5 19t-88.5 -3v-344zM616 55q61 29 95 76t34 107q0 119 -129 204v-387z" />
<glyph unicode="%" horiz-adv-x="1587" d="M49 956q0 76 19.5 140.5t54.5 110.5t82 73t104 27q55 0 103.5 -27t82 -73t53 -110.5t19.5 -140.5t-19.5 -139t-54 -109t-81.5 -73t-105 -27q-55 0 -103 27t-82 73t-53.5 109t-19.5 139zM193 956q0 -162 19 -234.5t97 -72.5q76 0 95.5 72t19.5 235q0 160 -21.5 235 t-93.5 75t-94 -70t-22 -240zM272 -80l893 1387h125l-893 -1387h-125zM1020 289q0 76 19.5 140.5t54 110.5t82 72.5t104.5 26.5q55 0 103.5 -26.5t82 -72.5t53 -110.5t19.5 -140.5t-19.5 -139.5t-54 -109.5t-82 -72.5t-104.5 -26.5q-55 0 -103.5 26.5t-82 72.5t-53 109.5 t-19.5 139.5zM1163 289q0 -162 19.5 -234.5t97.5 -72.5q76 0 95.5 71.5t19.5 235.5q0 160 -21.5 234.5t-93.5 74.5t-94.5 -69.5t-22.5 -239.5z" />
<glyph unicode="&#x26;" horiz-adv-x="1513" d="M68 309q0 127 85 216t267 157q-72 53 -113 124t-41 142q0 115 86 179.5t238 64.5q133 0 207.5 -51t74.5 -144q0 -76 -55 -135t-182 -123q96 -66 182 -155.5t154 -194.5q117 156 173 247t56 130q0 23 -24.5 31t-96.5 12v51h410v-51q-90 2 -129 -7t-62 -32 q-14 -14 -42.5 -60t-67.5 -107.5t-86 -130.5t-101 -130q49 -72 78 -126t52.5 -91t48 -55.5t63.5 -18.5q35 0 79 17.5t85 48.5l25 -41q-90 -59 -156 -84t-131 -25q-43 0 -80 11.5t-69.5 38t-64.5 69.5t-69 107q-231 -225 -446 -226q-74 0 -137.5 26.5t-110.5 73t-73.5 109 t-26.5 133.5zM276 350q0 -53 18.5 -99t52.5 -81t81 -55.5t104 -20.5q72 0 149.5 39t149.5 111q-29 55 -73.5 111.5t-96 109.5t-104.5 99t-96 79q-184 -115 -185 -293zM438 1004q0 -29 7.5 -53.5t24.5 -50.5t47 -55.5t75 -68.5q115 84 115 197q0 70 -40 116t-100 46 q-57 0 -93 -37t-36 -94z" />
<glyph unicode="'" horiz-adv-x="569" d="M176 1190q0 53 30 85t77 32t78.5 -31t31.5 -78q0 -18 -6 -55t-16 -84l-66 -293h-41l-69 293q-8 35 -13.5 70.5t-5.5 60.5z" />
<glyph unicode="(" horiz-adv-x="718" d="M158 449q0 238 106.5 467t341.5 430h90q-100 -113 -163.5 -226.5t-100.5 -226.5t-51 -224.5t-14 -219.5q0 -117 16 -234t54 -229.5t101.5 -221t157.5 -213.5h-90q-88 80 -169 177.5t-143.5 211t-99 240.5t-36.5 269z" />
<glyph unicode=")" horiz-adv-x="718" d="M23 -449q100 113 163.5 226.5t100.5 226.5t51 224.5t14 220.5q0 117 -16.5 233.5t-54 229t-101 221t-157.5 213.5h90q88 -80 168.5 -177.5t143 -211t99.5 -240.5t37 -268q0 -238 -106.5 -467.5t-341.5 -430.5h-90z" />
<glyph unicode="*" horiz-adv-x="1052" d="M68 1008l18 67l336 -39l67 338h72l68 -338l334 39l20 -67l-289 -168l140 -308l-62 -40l-248 225l-248 -225l-61 40l139 308z" />
<glyph unicode="+" horiz-adv-x="1366" d="M209 508v137h405v406h138v-406h405v-137h-405v-406h-138v406h-405z" />
<glyph unicode="," horiz-adv-x="591" d="M139 72q0 59 41 98t107 39q74 0 120 -53.5t46 -139.5q0 -111 -73 -195.5t-202 -123.5l-18 39q80 39 123 86t43 98q0 33 -27 33q-8 0 -21.5 -2t-19.5 -2q-51 0 -85 34.5t-34 88.5z" />
<glyph unicode="-" horiz-adv-x="794" d="M55 326v170h682v-170h-682z" />
<glyph unicode="." horiz-adv-x="591" d="M160 90q0 53 39 86t98 33t97 -33t38 -86t-37 -83t-98 -30q-63 0 -100 30t-37 83z" />
<glyph unicode="/" horiz-adv-x="976" d="M70 -33l694 1407h143l-694 -1407h-143z" />
<glyph unicode="0" horiz-adv-x="1044" d="M100 637q0 106 25 224t76 217.5t131 164t190 64.5q90 0 168 -51.5t134.5 -140.5t88 -212t31.5 -266t-31.5 -266t-88 -212t-134.5 -140.5t-168 -51.5q-106 0 -186 62.5t-132 159t-78 216t-26 232.5zM309 637q0 -154 5 -269.5t26.5 -193.5t65 -117t116.5 -39q74 0 117 40 t64.5 118t26.5 193.5t5 267.5q0 133 -4 246.5t-23.5 196.5t-62.5 129t-123 46q-74 0 -115.5 -39.5t-63 -117.5t-28 -193.5t-6.5 -267.5z" />
<glyph unicode="1" horiz-adv-x="1052" d="M156 1004q117 66 214 143.5t160 159.5h93v-1157q0 -57 18 -76t78 -19h102v-55h-588v55h99q66 0 81 15.5t15 79.5v935q-63 -45 -117.5 -72.5t-132.5 -56.5z" />
<glyph unicode="2" horiz-adv-x="1052" d="M86 0v57l383 412q111 117 162 222.5t51 209.5q0 117 -66.5 188.5t-171.5 71.5q-100 0 -171.5 -65.5t-102.5 -188.5h-57q14 90 49 164t89 126t122.5 81t150.5 29q78 0 144.5 -29t116 -78t78 -114.5t28.5 -139.5q0 -86 -36 -169t-134 -181q-14 -14 -49 -46t-79 -72t-94 -86 t-98 -93q-57 -57 -84.5 -88t-37.5 -45h426q49 0 79.5 7t51 24.5t31 49.5t18.5 81h51l-39 -328h-811z" />
<glyph unicode="3" horiz-adv-x="1052" d="M61 125q0 37 28 62.5t67 25.5q47 0 77.5 -27.5t60.5 -59.5t64.5 -59.5t85.5 -27.5q70 0 115 38t70.5 91t35 111.5t9.5 101.5q0 129 -52.5 198.5t-146.5 69.5q-29 0 -53.5 -5t-65.5 -19l-18 39q133 115 188.5 188.5t55.5 142.5q0 74 -50.5 126.5t-121.5 52.5 q-68 0 -122.5 -41t-111.5 -136l-49 19q57 141 152.5 216t222.5 75q57 0 106 -17.5t84 -49.5t55.5 -75t20.5 -92q0 -80 -53 -156.5t-152 -130.5v-4q154 -12 234 -99t80 -237q0 -100 -40 -188t-109 -152.5t-162 -101.5t-199 -37q-61 0 -117.5 12.5t-97.5 34t-66 50t-25 61.5z " />
<glyph unicode="4" horiz-adv-x="1052" d="M78 344v72l596 891h86v-844h188v-119h-188v-377h-195v377h-487zM188 463h377v563h-4z" />
<glyph unicode="5" horiz-adv-x="1052" d="M137 121q0 33 21.5 54.5t56.5 21.5q39 0 66.5 -26t55.5 -56.5t61.5 -56t84.5 -25.5q35 0 76 17.5t76 54t57.5 96t22.5 143.5q0 141 -76 228t-205 87q-47 0 -90 -13t-94 -46l-39 25l29 649h438q33 0 60.5 2t52.5 31h43l-29 -199h-508l-12 -315q51 23 94 32t98 9 q90 0 169 -32t137.5 -87.5t92 -131t33.5 -161.5q0 -94 -37.5 -177t-102 -144.5t-152 -97.5t-185.5 -36q-59 0 -113.5 12.5t-94.5 33t-63.5 49t-23.5 59.5z" />
<glyph unicode="6" horiz-adv-x="1052" d="M121 492q0 154 47 284.5t137 235t219 179.5t295 116l25 -41q-131 -55 -219 -124t-144.5 -144.5t-86 -155.5t-46.5 -160q133 90 258 90q78 0 141.5 -27.5t109.5 -79t71.5 -122t25.5 -154.5q0 -90 -30.5 -167t-85 -134t-128 -89t-159.5 -32q-90 0 -168 37t-136.5 105.5 t-92 166t-33.5 216.5zM330 426q0 -193 56 -296t163 -103q98 0 147 93t49 271q0 313 -192 314q-49 0 -98 -22t-115 -71q-6 -31 -8 -81t-2 -105z" />
<glyph unicode="7" horiz-adv-x="1052" d="M113 971l16 303h823v-64l-487 -1243h-162l481 1131h-479q-41 0 -64.5 -3t-35.5 -16.5t-18.5 -39t-14.5 -68.5h-59z" />
<glyph unicode="8" horiz-adv-x="1052" d="M115 315q0 211 266 318q-131 74 -186.5 152.5t-55.5 189.5q0 72 29 132t80 104t120.5 70t151.5 26q80 0 149.5 -23.5t121 -65.5t81 -97.5t29.5 -121.5q0 -98 -67.5 -172.5t-186.5 -113.5q82 -43 137.5 -83t89 -83t49 -92t15.5 -109q0 -82 -32 -150.5t-87 -119.5t-132 -80 t-167 -29q-86 0 -159.5 26.5t-129 74t-86 111t-30.5 136.5zM287 317q0 -129 66.5 -208.5t174.5 -79.5q51 0 94.5 19.5t75 53t50 78.5t18.5 99q0 41 -9 75.5t-44 71.5t-100.5 79t-180.5 97q-78 -59 -111.5 -126t-33.5 -159zM297 1040q0 -43 13.5 -78.5t47 -70.5t92 -71 t146.5 -79q76 53 109.5 117t33.5 150q0 113 -60.5 179t-164.5 66q-92 0 -154.5 -61.5t-62.5 -151.5z" />
<glyph unicode="9" horiz-adv-x="1052" d="M98 885q0 90 31 166.5t85 134t128 89.5t160 32q90 0 168 -37t136 -105.5t92 -165t34 -217.5q0 -154 -47 -284.5t-137.5 -235t-219.5 -179.5t-295 -116l-24 41q131 55 219 124t144.5 144.5t86 155.5t46.5 160q-133 -90 -259 -90q-76 0 -140 28.5t-110 78.5t-72 121 t-26 155zM307 883q0 -313 193 -314q49 0 98 22t115 71q6 31 8 81t2 105q0 193 -56.5 296t-162.5 103q-98 0 -147.5 -93t-49.5 -271z" />
<glyph unicode=":" horiz-adv-x="591" d="M160 90q0 53 39 86t98 33t97 -33t38 -86t-37 -83t-98 -30q-63 0 -100 30t-37 83zM160 727q0 53 39 86t98 33t97 -33t38 -86t-37 -83t-98 -30q-63 0 -100 30t-37 83z" />
<glyph unicode=";" horiz-adv-x="591" d="M139 72q0 59 41 98t107 39q74 0 120 -53.5t46 -139.5q0 -111 -73 -195.5t-202 -123.5l-18 39q80 39 123 86t43 98q0 33 -27 33q-8 0 -21.5 -2t-19.5 -2q-51 0 -85 34.5t-34 88.5zM160 727q0 53 39 86t98 33t97 -33t38 -86t-37 -83t-98 -30q-63 0 -100 30t-37 83z" />
<glyph unicode="&#x3c;" horiz-adv-x="1366" d="M209 516v123l946 397v-147l-762 -311l762 -312v-147z" />
<glyph unicode="=" horiz-adv-x="1366" d="M209 307v137h948v-137h-948zM209 715v137h948v-137h-948z" />
<glyph unicode="&#x3e;" horiz-adv-x="1366" d="M211 119v147l764 312l-764 311v147l946 -397v-123z" />
<glyph unicode="?" horiz-adv-x="737" d="M88 1180q0 55 50 86.5t141 31.5q96 0 166.5 -34.5t117.5 -90t70.5 -123t23.5 -132.5q0 -78 -22.5 -138.5t-75.5 -113.5q-47 -47 -98 -66.5t-94 -32t-71 -28t-28 -56.5q0 -39 33 -102h-57q-43 72 -62.5 125t-19.5 98q0 51 30.5 81t76.5 50.5t100.5 35.5t100.5 37.5 t77 58.5t31 96q0 70 -45.5 111.5t-118.5 41.5q-18 0 -47 -4t-60 -8t-60.5 -8t-51.5 -4q-106 0 -107 88zM158 90q0 53 39 86t98 33t97 -33t38 -86t-37 -83t-98 -30q-63 0 -100 30t-37 83z" />
<glyph unicode="@" horiz-adv-x="1904" d="M178 344q0 176 63.5 328.5t174 264.5t260 176.5t321.5 64.5q158 0 277 -48.5t196.5 -129t116.5 -188t39 -224.5q0 -111 -33.5 -220.5t-97 -196.5t-156 -140.5t-211.5 -53.5q-72 0 -113.5 35t-41.5 97q0 16 6 58t12 64l-4 5q-53 -78 -96 -128.5t-81 -80t-71.5 -41 t-68.5 -11.5q-66 0 -108 54.5t-42 140.5q0 121 48 233.5t119 200.5t153 140.5t147 52.5q106 0 129 -127h4l27 98l174 18l-164 -579q-8 -29 -13 -55.5t-5 -45.5q0 -29 19.5 -48t45.5 -19q43 0 105.5 33.5t122 101.5t101.5 170t42 242q0 121 -41 220t-114.5 171t-176 111.5 t-225.5 39.5q-158 0 -295 -63.5t-239.5 -174t-161 -259t-58.5 -318.5q0 -150 50.5 -274.5t140.5 -215.5t214 -141.5t273 -50.5q240 0 425 126t278 352h51q-45 -123 -120 -221.5t-172 -167t-215 -104.5t-249 -36q-166 0 -305 57.5t-240.5 159t-159 241.5t-57.5 306zM700 207 q0 -41 22.5 -71t51.5 -30q25 0 53.5 15.5t69.5 56.5t75 94.5t58.5 112.5t38.5 122t14 118q0 53 -23.5 86.5t-60.5 33.5q-49 0 -101 -61t-96 -147t-73 -178.5t-29 -151.5z" />
<glyph unicode="A" horiz-adv-x="1456" d="M20 0v55q51 0 84 7.5t56.5 27t42 55t39.5 95.5l370 1015l-16 52h229l400 -1067q23 -59 40 -96.5t38.5 -56.5t51 -25.5t79.5 -6.5v-55h-609v55q121 0 164 15.5t43 60.5q0 35 -28 109l-99 254h-469l-100 -273q-20 -55 -21 -86q0 -45 41 -65q34 -16 125 -16q19 0 39 1v-55 h-500zM475 596h391l-196 518z" />
<glyph unicode="B" horiz-adv-x="1329" d="M10 0v55q68 0 112 6.5t68.5 22.5t35 43t10.5 70v815q0 51 -4.5 90t-20.5 64.5t-47 39t-84 13.5h-70v55q49 0 130 2t153 6q59 4 139 6t133 2q131 0 238.5 -14t183.5 -48t118 -92.5t42 -144.5q0 -100 -64.5 -169.5t-179.5 -92.5v-4q154 -41 236 -130t82 -214 q0 -78 -31 -146.5t-95.5 -121t-160.5 -83t-229 -30.5h-695zM463 299q0 -119 43 -172t170 -53q135 0 216 83t81 220q0 154 -101.5 232.5t-296.5 78.5h-112v-389zM463 745h149q295 0 295 224q0 115 -73.5 189.5t-249.5 74.5q-33 0 -59.5 -2t-61.5 -6v-480z" />
<glyph unicode="C" horiz-adv-x="1513" d="M102 612q0 131 45.5 256t137.5 222.5t233 157t336 59.5q84 0 154.5 -10.5t127 -23.5t96.5 -23.5t62 -10.5q23 0 37 14h51l11 -338h-62q-57 160 -177 243t-292 83q-115 0 -209 -41t-161.5 -116.5t-104.5 -182t-37 -235.5q0 -135 42 -249t116 -198t174 -131t217 -47 q152 0 280 77t214 224h61l-139 -342q-18 8 -32.5 11t-37.5 3q-35 0 -78 -7t-95 -16t-110.5 -16.5t-123.5 -7.5q-178 0 -315.5 49.5t-230.5 136.5t-141.5 204.5t-48.5 254.5z" />
<glyph unicode="D" horiz-adv-x="1605" d="M47 0v55q66 0 104.5 6.5t58 24.5t26 51t6.5 84v817q0 55 -8.5 91t-31 56.5t-59.5 27t-96 6.5v55q23 0 64 1t87 3l92 4t79 4q84 4 158.5 4h134.5q233 0 398 -43t259 -137q96 -96 136 -207.5t40 -228.5q0 -113 -42 -232.5t-138 -218t-251 -161t-380 -62.5h-637zM469 205 q0 -49 5 -78t20.5 -44t46 -20.5t80.5 -5.5q184 0 290.5 39t175.5 109q47 47 78 101t49.5 111.5t25.5 116t7 111.5q0 111 -31.5 227.5t-125.5 210.5q-76 78 -183.5 114t-288.5 36h-68.5t-80.5 -4v-1024z" />
<glyph unicode="E" horiz-adv-x="1179" d="M20 0v55q61 0 102.5 6.5t64 21.5t31.5 43t9 71v882q0 51 -12 79t-38.5 41t-64.5 16.5t-92 3.5v55h1047l18 -307h-55l-10 43q-14 63 -30.5 98t-38 51.5t-54.5 19.5t-82 3h-360v-477h317q45 0 72.5 4t44 20t25 47t12.5 84h55v-411h-55q-6 55 -14.5 86.5t-26 49t-44 22.5 t-69.5 5h-317v-372q0 -47 4 -77t17 -45.5t37 -20.5t62 -5h228q78 0 127 7t81.5 32t53 70t41.5 121h55l-31 -322h-1110z" />
<glyph unicode="F" horiz-adv-x="1126" d="M78 0v55q98 0 128 39t30 121v854q0 86 -35 118t-123 32v55h975v-256h-56q-4 51 -14 83t-33.5 50t-63.5 24.5t-102 6.5h-321v-453h321q47 0 77 5t48.5 19.5t27.5 40t13 66.5h56v-377h-56q-6 47 -15 78t-28.5 47.5t-51.5 22.5t-81 6h-311v-385q0 -61 6 -99t25.5 -59.5 t54.5 -30t92 -8.5v-55h-563z" />
<glyph unicode="G" horiz-adv-x="1513" d="M102 608q0 102 34 224t116 227.5t221 176.5t350 71q76 0 136.5 -8.5t108.5 -19.5t85 -19.5t61 -8.5q37 0 54 23h59v-377h-61q-35 166 -140.5 255t-265.5 89q-115 0 -209 -43t-160.5 -123t-103.5 -192.5t-37 -251.5q0 -154 44 -264.5t115 -183t162 -106.5t183 -34 q133 0 262 68v243q0 53 -9 85t-36 48.5t-75 21.5t-124 5v55h613v-55q-51 0 -80 -14.5t-43 -37t-16.5 -52t-2.5 -58.5v-260q-86 -35 -158.5 -58.5t-138 -38.5t-127 -21.5t-124.5 -6.5q-156 0 -284 46t-218 130t-140.5 203t-50.5 262z" />
<glyph unicode="H" horiz-adv-x="1658" d="M49 0v55q61 4 98 15.5t55.5 34t23.5 57.5t5 86v764q0 57 -6 96t-25.5 63.5t-55 36t-95.5 11.5v55h592v-55q-57 -2 -93 -11.5t-55.5 -33t-26.5 -64.5t-7 -109v-305h739v308q0 61 -6 102t-25.5 65.5t-56.5 35t-100 12.5v55h602v-55q-61 -2 -97 -12.5t-56.5 -32t-27 -59.5 t-6.5 -97v-772q0 -55 6.5 -90t26 -56.5t56 -31t98.5 -13.5v-55h-602v55q59 2 96 12.5t57.5 33t27.5 58.5t7 91v354h-739v-371q0 -45 5 -77.5t24.5 -54t55.5 -33t97 -13.5v-55h-592z" />
<glyph unicode="I" horiz-adv-x="702" d="M66 0v55h17q49 -1 78 9q34 12 50 34.5t19 56t3 76.5v834q-1 84 -31 120q-29 34 -125 34h-11v55h571v-55q-51 0 -85 -7.5t-54.5 -27t-28.5 -53t-8 -89.5v-796q0 -57 7 -95t25.5 -59.5t53.5 -29.5q28 -7 70 -7h20v-55h-571z" />
<glyph unicode="J" horiz-adv-x="718" d="M-219 -350q0 37 31.5 70.5t66.5 33.5q27 0 55.5 -19.5t59.5 -44t62.5 -44t64.5 -19.5q78 0 106.5 72t28.5 223v1120q0 49 -5 83t-23.5 55.5t-55.5 31.5q-31 7 -80 7h-22v55h587v-55q-55 0 -88.5 -8.5t-52 -28t-26 -54t-7.5 -88.5v-764q0 -162 -28.5 -300t-87 -238 t-145.5 -156.5t-202 -56.5q-47 0 -91 10t-76.5 26.5t-52 40t-19.5 48.5z" />
<glyph unicode="K" horiz-adv-x="1476" d="M33 0v55h27q50 -1 80 5q38 8 58.5 28.5t26.5 55t6 87.5v830q0 53 -9 85t-32.5 49t-61.5 21q-26 3 -62 4q-16 0 -33 -1v55h616v-55q-66 0 -103.5 -9.5t-57 -31t-24.5 -55t-5 -81.5v-395q82 23 146.5 68t117.5 98q51 51 94 103.5t74 98.5t47 83t16 57q0 35 -31.5 49.5 t-109.5 14.5v55h582v-55q-80 0 -131.5 -7.5t-87 -25t-62.5 -46t-57 -69.5l-170 -231q-10 -14 -35 -40t-53.5 -51.5t-54 -48t-39.5 -30.5l4 -4h3q40 0 104 -56q68 -58 136 -139l215 -244q53 -61 87 -95t67 -51.5t73 -21.5t107 -4v-55h-647v55q61 0 89 13.5t28 42.5 q0 12 -12.5 33.5t-31 46t-39 48t-34.5 37.5l-174 183q-66 70 -111 96.5t-110 26.5v-338q0 -55 5 -92t25.5 -59.5t58.5 -30.5q31 -7 78 -7h23v-55h-616z" />
<glyph unicode="L" horiz-adv-x="1181" d="M41 0v55q61 0 100 5.5t60.5 22.5t30 52t8.5 96v811q0 53 -5.5 87t-25 54.5t-59.5 28.5q-32 7 -83 7h-26v55h672v-55q-82 0 -131.5 -4.5t-75 -19.5t-32.5 -48t-7 -90v-864q0 -63 19.5 -82t91.5 -19h210q66 0 106 4t72.5 25.5t68.5 65.5t93 122h62l-158 -309h-991z" />
<glyph unicode="M" horiz-adv-x="1900" d="M37 0v55q47 0 78.5 6.5t52 28t31 60t14.5 106.5l49 754q2 39 2 69q0 23 -1 41q-3 42 -16.5 63t-41 28.5t-72.5 7.5v55h379l442 -948l418 948h379v-55q-85 0 -111 -24q-21 -19 -21 -70q0 -12 1 -25l74 -932q4 -39 13 -61.5t28.5 -34t50.5 -14.5t76 -3v-55h-582v55 q63 0 101 10.5t57.5 38t23.5 77.5q2 20 2 45q0 38 -4 87l-55 756h-4l-473 -1069h-70l-481 1042h-4l-49 -757q-3 -38 -3 -68q0 -35 4 -59q7 -45 26.5 -66.5t54 -27t86.5 -9.5v-55h-455z" />
<glyph unicode="N" horiz-adv-x="1679" d="M51 0v55h18q42 -1 71 7q34 10 52.5 30.5t24.5 55t6 83.5v922q-37 33 -74.5 47t-97.5 19v55h371l913 -965v733q0 57 -6 92t-27.5 54.5t-61.5 25t-107 5.5v55h495v-55q-51 0 -86 -6.5t-55.5 -26t-29.5 -54t-9 -94.5v-1050h-111l-1001 1054v-786q0 -59 6 -100t27.5 -64.5 t61.5 -31.5q27 -6 68 -6q19 0 42 1v-55h-490z" />
<glyph unicode="O" horiz-adv-x="1716" d="M111 602q0 154 55 283t155.5 223t237.5 146.5t299 52.5q166 0 303 -47.5t236.5 -133.5t154 -204.5t54.5 -262.5q0 -137 -53.5 -263t-151.5 -221t-238.5 -151.5t-312.5 -56.5q-160 0 -296 48t-234.5 132t-153.5 201t-55 254zM358 657q0 -154 45.5 -271.5t119 -195 t167.5 -117.5t193 -40q106 0 194 42t150.5 116.5t96.5 181t34 235.5q0 139 -38 255t-106.5 200t-164 131t-207.5 47q-111 0 -200 -41t-152.5 -116.5t-97.5 -183.5t-34 -243z" />
<glyph unicode="P" horiz-adv-x="1142" d="M37 1219v55q23 0 51.5 1t58 2t56 2t45.5 1q37 2 79 4t79.5 3t68.5 2t45 1q145 0 257 -18.5t186.5 -61.5t113.5 -113.5t39 -174.5q0 -90 -36 -165t-100.5 -128.5t-153.5 -83t-197 -29.5q-41 0 -83 3t-85 11v-280q0 -59 9 -96t34.5 -58.5t71 -31t116.5 -9.5v-55h-631v55 q53 2 87 11.5t52.5 32t25.5 64.5t7 109v729q0 74 -8 118t-29.5 65.5t-59.5 28t-99 6.5zM461 592q20 -4 42.5 -7t45.5 -3q72 0 130 25.5t100 71.5t65.5 108.5t23.5 138.5q0 51 -13 105t-48 99.5t-94.5 74t-151.5 28.5q-53 0 -100 -6v-635z" />
<glyph unicode="Q" horiz-adv-x="1716" d="M111 608q0 152 56 280t156.5 221t236.5 145.5t298 52.5q166 0 303 -47.5t235.5 -133.5t154 -204.5t55.5 -262.5q0 -121 -40 -230.5t-113 -198.5t-172 -151.5t-220 -88.5h-6v-4q47 -20 101 -61.5t136 -114.5q55 -49 96.5 -82t80 -53.5t80.5 -34t98 -21.5l-39 -72 q-16 -2 -39 -3t-45 -1q-63 0 -120.5 12.5t-120 41t-133.5 74.5t-159 116q-59 47 -108 81t-97.5 58.5t-98.5 44t-112 35.5h3l-7 2q-215 72 -337.5 230.5t-122.5 369.5zM358 657q0 -154 46.5 -269.5t120 -194t167.5 -118.5t191 -40q106 0 194 41t150.5 116.5t96.5 182 t34 235.5q0 139 -39 255t-107.5 199t-164 130t-207.5 47q-111 0 -200 -41t-151.5 -116.5t-96.5 -183.5t-34 -243z" />
<glyph unicode="R" horiz-adv-x="1624" d="M41 0v55h24q49 1 79 7q36 8 56.5 28.5t25.5 55t5 85.5v822q0 49 -6 81.5t-25.5 51t-57.5 26t-101 7.5v55q35 0 110.5 5t182.5 9q82 4 150.5 4h99.5q156 0 261 -30.5t170.5 -82t94.5 -118t29 -135.5q0 -225 -258 -334q12 -8 32.5 -26.5t44 -40t44 -42l32.5 -32.5l133 -134 q137 -137 251 -202.5t241 -79.5v-58q-37 -1 -71 -1q-106 0 -181 10q-100 12 -174 41.5t-133.5 78t-128.5 117.5l-109 109q-39 39 -66.5 65.5t-51 48t-47 40t-56.5 42.5q-45 -4 -93 -4t-89 4v-270q0 -66 6 -106.5t27.5 -63t63.5 -28.5q32 -5 81 -5h31v-55h-627zM459 586 q10 -2 32.5 -4t32.5 -2q205 10 286 90t81 235q0 156 -83 243t-251 87q-23 0 -53.5 -2t-44.5 -6v-641z" />
<glyph unicode="S" horiz-adv-x="1071" d="M100 336h62q39 -141 130 -218t224 -77q113 0 183.5 59.5t70.5 151.5q0 72 -48 131t-120 113.5t-154.5 107.5t-154.5 112.5t-120 131.5t-48 160q0 66 27.5 121t78 95t119 61.5t150.5 21.5q51 0 89 -5.5t68 -11.5q31 -6 56.5 -11t52.5 -5q35 0 57 24h51l46 -317h-62 q-47 123 -135 191.5t-199 68.5q-98 0 -149 -50t-51 -118t48 -123t119.5 -106t155.5 -101.5t155.5 -111t120 -136t48.5 -173.5q0 -80 -32 -144.5t-90 -112t-139 -73t-180 -25.5q-57 0 -99 6.5t-73.5 12.5t-55 12t-46.5 6q-35 0 -55 -22h-49z" />
<glyph unicode="T" horiz-adv-x="1400" d="M41 956l37 353h55q6 -10 12.5 -17.5t20.5 -11.5t36.5 -5t63.5 -1h867q78 0 101 6t32 29h55l37 -353h-60q-10 80 -24 125t-35.5 67.5t-53.5 28t-79 5.5h-293v-965q0 -51 7 -84t32 -49t72 -22.5t127 -6.5v-55h-703v55q78 0 124 6.5t71.5 23.5t34 49t8.5 83v965h-293 q-45 0 -77 -5.5t-53.5 -28t-35.5 -67.5t-27 -125h-59z" />
<glyph unicode="U" horiz-adv-x="1642" d="M39 1219v55h582v-55q-57 0 -92 -7.5t-54.5 -27t-27 -54t-7.5 -88.5v-550q0 -102 33 -177t91.5 -124.5t138 -73t176.5 -23.5q86 0 164.5 20.5t140 66.5t98.5 124t37 191v546q0 59 -7 94t-28.5 53.5t-60.5 24t-101 5.5v55h496v-55q-57 0 -94 -7.5t-57.5 -27t-27.5 -54 t-7 -88.5v-569q0 -121 -44.5 -215t-126 -158.5t-196.5 -98.5t-254 -34q-293 0 -445.5 134.5t-152.5 385.5v576q0 47 -7 76.5t-26.5 47t-53.5 25t-87 7.5z" />
<glyph unicode="V" horiz-adv-x="1495" d="M29 1219v55h630v-55q-63 0 -101 -8.5t-59.5 -20.5t-28.5 -27.5t-7 -32.5q0 -43 33 -122l309 -760l301 725q29 66 38 100.5t9 56.5q0 51 -43 70t-141 19v55h497v-55q-55 0 -90 -14.5t-59.5 -43t-44 -73t-43.5 -103.5l-424 -1018h-125l-440 1094q-20 53 -38 84t-40.5 47 t-53 21.5t-79.5 5.5z" />
<glyph unicode="W" horiz-adv-x="2289" d="M33 1219v55h594v-55q-78 -4 -105.5 -16.5t-27.5 -51.5q0 -14 6 -37.5t16 -50.5t22.5 -53.5t22.5 -48.5l357 -756l215 444l-189 398q-29 61 -50.5 97t-44 52t-54 19.5t-82.5 3.5v55h960v-55q-53 0 -86 -6.5t-57.5 -24t-45 -51t-48.5 -90.5l-133 -267l276 -569l354 846 q18 43 24.5 65.5t6.5 34.5q0 35 -33 48.5t-116 13.5v55h442v-55q-43 0 -73 -5.5t-55.5 -27t-51 -64.5t-58.5 -123l-432 -1032h-131l-268 565l-270 -565h-127l-500 1080q-27 59 -48.5 93t-49 51t-64.5 22.5t-96 5.5zM1120 1184q0 -16 7.5 -37t23.5 -55l96 -197l105 217 q22 43 22 68q0 22 -18.5 30.5t-69.5 8.5h-76q-53 0 -71.5 -7.5t-18.5 -27.5z" />
<glyph unicode="X" horiz-adv-x="1624" d="M47 0v55h15q64 0 126 30q68 34 115 89l397 453l-338 422q-43 53 -74.5 85.5t-64.5 50t-73.5 25t-102.5 9.5v55h705v-55q-86 0 -127 -12.5t-41 -51.5q0 -16 11 -36.5t44 -61.5l209 -260l182 202q59 66 82 102t23 58q0 35 -30 47.5t-112 12.5v55h533v-55q-57 0 -99.5 -7.5 t-79 -28t-74.5 -56t-89 -95.5l-273 -313l424 -524q35 -41 63.5 -68t58.5 -42t64.5 -21.5t80.5 -8.5v-55h-637v55h19q52 -1 80 9q32 12 32 45q0 35 -52 94l-280 346l-272 -309q-47 -53 -64.5 -80t-17.5 -47q0 -31 34 -47q27 -12 89 -12q16 0 34 1v-55h-520z" />
<glyph unicode="Y" horiz-adv-x="1513" d="M25 1219v55h616v-55q-84 0 -113.5 -15.5t-29.5 -44.5q0 -20 14 -50t55 -87l269 -383l233 371q35 57 51.5 90t16.5 55q0 35 -31 49.5t-100 14.5v55h481v-55q-55 -6 -94 -17.5t-72 -37t-67.5 -73t-84.5 -126.5l-276 -447v-285q0 -57 6 -92t26.5 -54t59.5 -25.5t102 -6.5 v-55h-618v55q59 0 97 5.5t59.5 23.5t31 55t9.5 101v260l-385 553q-39 55 -66 86.5t-53.5 49t-58 23t-78.5 7.5z" />
<glyph unicode="Z" horiz-adv-x="1384" d="M57 0v92l910 1090h-555q-66 0 -106 -7.5t-62.5 -31t-32.5 -65.5t-21 -113h-59l10 309h1121v-82l-914 -1100h674q68 0 107.5 10.5t64.5 41t40 89t34 154.5h61l-29 -387h-1243z" />
<glyph unicode="[" horiz-adv-x="681" d="M166 -432v1767h452v-57l-169 -6q-55 -2 -72 -20.5t-17 -84.5v-1431q0 -66 16.5 -84.5t72.5 -20.5l169 -6v-57h-452z" />
<glyph unicode="\" horiz-adv-x="976" d="M70 1374h145l692 -1407h-143z" />
<glyph unicode="]" horiz-adv-x="681" d="M63 -375l168 6q57 2 74 20.5t17 84.5v1431q0 66 -16.5 84.5t-74.5 20.5l-168 6v57h453v-1767h-453v57z" />
<glyph unicode="^" horiz-adv-x="1189" d="M203 653l356 621h70l356 -621h-133l-258 443l-258 -443h-133z" />
<glyph unicode="_" horiz-adv-x="1024" d="M-12 -154h1048v-102h-1048v102z" />
<glyph unicode="`" horiz-adv-x="681" d="M156 1307h225l96 -299h-51z" />
<glyph unicode="a" horiz-adv-x="905" d="M88 174q0 88 53 141q31 31 76 48.5t98 33.5t111.5 38t116.5 63v65q0 109 -34 158t-106 49q-47 0 -80.5 -25.5t-33.5 -60.5q0 -14 6 -30.5t14 -30.5l-186 -76q-25 33 -25 63q0 37 33 79t85 77t118.5 57.5t134.5 22.5q127 0 197.5 -59.5t70.5 -170.5v-458q0 -70 43 -70 q39 0 101 53l18 -37q-141 -127 -242 -127q-114 0 -114 117v10q-37 -29 -62.5 -52t-50 -39.5t-54.5 -26t-75 -9.5q-94 0 -153.5 55.5t-59.5 141.5zM293 195q0 -53 26.5 -87t69.5 -34q23 0 40 8t34 20q16 12 31.5 23.5t48.5 34.5v278q-82 -49 -131.5 -78.5t-76 -53 t-34.5 -48.5t-8 -63z" />
<glyph unicode="b" horiz-adv-x="1087" d="M18 1237v51l271 86h59v-667q61 41 106.5 67.5t83 43t69.5 22.5t65 6q72 0 132 -31t106 -85t72 -127t26 -157q0 -88 -31 -172t-97.5 -149.5t-169 -106.5t-245.5 -41q-35 0 -71 2.5t-77 6.5q-39 4 -78.5 9t-84.5 13v1127q0 53 -29 77.5t-107 24.5zM348 334q0 -61 7 -113.5 t30 -92.5t62.5 -62.5t105.5 -22.5q117 0 183.5 88t66.5 236q0 72 -16.5 135t-47 111.5t-76 77t-104.5 28.5q-45 0 -92 -17.5t-119 -64.5v-303z" />
<glyph unicode="c" horiz-adv-x="923" d="M86 379q0 104 37 190t104.5 147.5t161.5 95.5t207 34q123 0 194.5 -38t71.5 -103q0 -35 -24.5 -58.5t-63.5 -23.5q-41 0 -72.5 24.5t-60.5 54t-59.5 54t-71.5 24.5q-47 0 -88 -26.5t-70.5 -73.5t-46 -109.5t-16.5 -136.5q0 -160 68.5 -259t181.5 -99q78 0 141 34.5 t139 120.5l39 -34q-166 -219 -395 -220q-84 0 -153.5 29t-119 82t-77 127t-27.5 164z" />
<glyph unicode="d" horiz-adv-x="1087" d="M82 375q0 100 37 186t102.5 149.5t154.5 99.5t193 36q90 0 176 -23v301q-1 53 -27 84q-25 29 -98 29h-10v51l279 86h51v-1169q0 -66 57 -66q4 0 29 3t51 14v-47l-280 -134h-52v134q-94 -63 -171.5 -97.5t-167.5 -34.5q-68 0 -127.5 31t-102.5 84t-68.5 126t-25.5 157z M287 449q0 -80 17.5 -146.5t49 -114t75.5 -74t97 -26.5q47 0 93.5 16.5t125.5 63.5v444q-59 80 -112 116t-119 36q-104 0 -165.5 -85t-61.5 -230z" />
<glyph unicode="e" horiz-adv-x="960" d="M82 389q0 100 31.5 184t88 144.5t134.5 94.5t170 34q84 0 148.5 -25.5t105.5 -66.5q35 -35 49 -70t23.5 -64.5t19.5 -52t37 -35.5v-57h-613q0 -86 23 -155.5t62.5 -118.5t96 -77t124.5 -28q129 0 258 144l39 -37q-78 -117 -179.5 -171.5t-236.5 -54.5q-106 0 -180 38 t-118 97.5t-63.5 132t-19.5 144.5zM276 532h377q-25 258 -182 259q-164 0 -195 -259z" />
<glyph unicode="f" horiz-adv-x="626" d="M37 717v51q39 10 83 24.5t66 30.5v11q0 120 42 218q44 101 118 172.5t165 110.5t179 39q41 0 81 -7t73 -19.5t52 -27.5t19 -32q0 -10 -9 -34.5t-23.5 -50t-30.5 -45t-29 -19.5q-18 0 -40.5 20.5t-53.5 44t-72 44t-94 20.5q-94 0 -138 -72t-44 -227v-146h223l10 -106h-233 v-510q0 -76 25.5 -116t107.5 -40h100v-51h-565v51q31 0 56.5 5t44 22.5t27.5 48.5t9 82v508h-149z" />
<glyph unicode="g" horiz-adv-x="1052" d="M72 -293q0 45 22.5 78t55 58.5t66.5 49t54 48.5q-80 25 -124 68.5t-44 99.5q0 43 32 68.5t70 40.5t70.5 24.5t34.5 21.5q-100 41 -147 104.5t-47 161.5q0 68 28.5 126.5t79.5 100.5t122 65.5t155 23.5q152 0 250 -74l276 39v-178q-47 0 -93 7t-102 24q14 -35 19.5 -64 t5.5 -57q0 -63 -28.5 -119.5t-79 -98.5t-118 -67t-143.5 -25q-66 0 -116 11q-51 -35 -69.5 -54.5t-18.5 -39.5q0 -27 21.5 -42.5t73.5 -23.5t138 -10t215 -2q78 0 130 -18.5t85 -47.5t46.5 -64.5t13.5 -72.5q0 -57 -38 -118.5t-113 -112t-184.5 -82t-252.5 -31.5 q-164 0 -255 44t-91 138zM250 -207q0 -39 23.5 -74.5t64.5 -62.5t94 -42t115 -15q59 0 113.5 17t95.5 46t65.5 68t24.5 82q0 90 -133 92l-154 4q-80 2 -133 6t-96 12q-29 -33 -54.5 -61.5t-25.5 -71.5zM309 565q0 -119 51.5 -196.5t133.5 -77.5q78 0 123 61.5t45 165.5 q0 117 -51.5 193.5t-133.5 76.5q-78 0 -123 -60.5t-45 -162.5z" />
<glyph unicode="h" d="M35 0v51q68 0 100.5 33t32.5 133v913q0 20 -3 37t-16.5 30t-40 23.5t-73.5 16.5v51l276 86h51v-667q104 68 200.5 103.5t172.5 35.5q104 0 160.5 -76t56.5 -264q0 -90 -7 -178t-7 -146q0 -76 36 -103.5t122 -27.5v-51h-494v51q49 0 80 10.5t47 51.5t22.5 121.5t6.5 220.5 q0 154 -38 218t-116 64q-47 0 -105.5 -20.5t-136.5 -65.5v-450q0 -84 32 -117t106 -33v-51h-465z" />
<glyph unicode="i" horiz-adv-x="534" d="M14 0v51h18q72 0 105 29q37 33 37 117v458q0 16 -3 28.5t-18.5 22t-47 16.5t-91.5 15v45l310 86h45v-649q0 -51 6 -84t23.5 -51t46 -25.5t73.5 -7.5v-51h-504zM129 1219q0 49 36 78.5t95 29.5q55 0 90 -29.5t35 -76.5q0 -49 -36 -80t-95 -31q-55 0 -90 30t-35 79z" />
<glyph unicode="j" horiz-adv-x="534" d="M-242 -358q0 43 28 81.5t56 38.5q29 0 57.5 -24.5t59.5 -53t63.5 -53t67.5 -24.5q102 0 103 209v796q0 37 -3.5 58.5t-18.5 34t-48 20.5t-90 16v41l307 86h47v-864q0 -106 -23.5 -194.5t-72.5 -152t-123 -98t-174 -34.5q-102 0 -169 32.5t-67 84.5zM139 1219 q0 49 36 78.5t95 29.5q55 0 90 -29.5t35 -76.5q0 -49 -35.5 -80t-95.5 -31q-55 0 -90 30t-35 79z" />
<glyph unicode="k" horiz-adv-x="1087" d="M37 0v51q66 0 99.5 30t33.5 109v918q0 33 -4 54.5t-17.5 34.5t-40 22.5t-71.5 17.5v51l276 86h52v-891l239 183q41 31 57.5 48t16.5 27q0 16 -23.5 23.5t-83.5 7.5v51h447v-51q-45 0 -84 -7t-77 -23.5t-79 -42t-92 -64.5l-147 -113l362 -385q33 -35 88 -60.5t109 -25.5 v-51h-494v51q47 0 64.5 9.5t17.5 31.5q0 29 -33 62l-288 301v-254q0 -84 31.5 -117t117.5 -33v-51h-477z" />
<glyph unicode="l" horiz-adv-x="555" d="M23 0v51q96 0 126.5 36t30.5 130v891q0 35 -4 58.5t-19.5 37t-47 21.5t-86.5 12v51l292 86h60v-1171q0 -88 30.5 -120t124.5 -32v-51h-507z" />
<glyph unicode="m" horiz-adv-x="1679" d="M31 0v51q72 0 102.5 36t30.5 116v360q0 43 -3 66.5t-15.5 38t-39 21.5t-75.5 16v51l276 90h51v-164q129 86 218.5 125t158.5 39q152 0 191 -170q129 88 222 129t161 41q102 0 153 -74t51 -207v-350q0 -76 24 -120t112 -44v-51h-463v51q61 0 97 30t36 116v362 q0 70 -27.5 120t-97.5 50q-102 0 -258 -115v-399q0 -96 31.5 -130t105.5 -34v-51h-465v51q66 0 99.5 30t33.5 118v344q0 37 -4 69.5t-17 59t-38 42t-66 15.5q-100 0 -258 -115v-403q0 -96 31 -128t105 -32v-51h-463z" />
<glyph unicode="n" d="M23 0v51q76 0 105.5 34t29.5 118v366q0 41 -3 63.5t-16.5 36t-40 20.5t-75.5 16v51l278 90h51v-172q137 88 222 130t157 42q106 0 159.5 -79t53.5 -249q0 -125 -7 -205t-7 -131q0 -72 34.5 -101.5t118.5 -29.5v-51h-493v51q55 0 87 15.5t48 62.5t20.5 135t4.5 232 q0 117 -33 174t-107 57q-53 0 -112.5 -30.5t-145.5 -90.5v-397q0 -86 28 -122t109 -36v-51h-466z" />
<glyph unicode="o" d="M84 418q0 98 33 177t94 134t147 86t193 31q129 0 220 -42t147.5 -105.5t82 -140.5t25.5 -144q0 -94 -35 -174t-97.5 -138.5t-148.5 -91.5t-186 -33q-109 0 -197 31t-149 88.5t-95 139.5t-34 182zM293 477q0 -92 23.5 -171t63.5 -137t94 -92t116 -34q104 0 165.5 81 t61.5 222q0 92 -23.5 172t-63.5 138.5t-93 91t-113 32.5q-104 0 -167.5 -82t-63.5 -221z" />
<glyph unicode="p" horiz-adv-x="1071" d="M-6 -424q86 0 121 33t35 127v870q0 29 -3.5 45.5t-15.5 26.5t-36.5 15t-67.5 12v51l266 121h51v-175q115 72 194.5 104t139.5 32q72 0 127 -31t95 -82t60.5 -118.5t20.5 -143.5q0 -111 -46 -199t-116.5 -150.5t-154.5 -95t-162 -32.5q-37 0 -73 6t-85 22v-272 q0 -55 7 -89t26.5 -50.5t56.5 -21.5t96 -5v-51h-536v51zM344 182q103 -114 223 -114h2q43 0 82 19t70 57t49 93.5t18 124.5q0 92 -23.5 159t-60 112t-81.5 66.5t-86 21.5t-85 -17.5t-108 -58.5v-463z" />
<glyph unicode="q" horiz-adv-x="1087" d="M82 373q0 98 37 184t100.5 150.5t148.5 101.5t181 37q70 0 129 -16.5t145 -57.5q16 20 35 37.5t41 36.5h51q-4 -27 -7 -59.5t-3 -73.5v-975q0 -80 24.5 -121t114.5 -41v-51h-551v51q72 0 115 6t65.5 23.5t29.5 49.5t7 83v381q-82 -70 -155.5 -101.5t-155.5 -31.5 q-76 0 -140.5 28.5t-111.5 79.5t-73.5 123t-26.5 156zM287 451q0 -76 19.5 -139.5t53 -109.5t81.5 -72t106 -26q43 0 91 16.5t107 63.5v348q0 111 -55 179.5t-158 68.5q-111 0 -178 -91t-67 -238z" />
<glyph unicode="r" horiz-adv-x="737" d="M31 0v51q72 0 104.5 31t32.5 123v459l-137 51v41l280 90h51v-205h5q59 115 100 160t82 45q23 0 61.5 -16.5t130.5 -34.5l-67 -168q-70 14 -114 35.5t-64 21.5q-70 0 -134 -131v-340q0 -55 8.5 -88t31 -49.5t62.5 -20.5t103 -4v-51h-536z" />
<glyph unicode="s" horiz-adv-x="718" d="M100 236h47q18 -92 75 -147.5t132 -55.5q53 0 88 30.5t35 81.5q0 41 -27.5 76t-68.5 69t-90 68.5t-90 72.5t-69 83t-28 98q0 51 21.5 94.5t60.5 74t92.5 48t114.5 17.5q41 0 87 -6t104 -23v-225h-45q-20 92 -63.5 141t-106.5 49q-45 0 -76 -27.5t-31 -68.5 q0 -39 27.5 -72.5t70.5 -64.5t91.5 -62.5t91.5 -70.5t70.5 -87t27.5 -112q0 -51 -21.5 -94t-60.5 -76t-91 -51.5t-112 -18.5q-29 0 -51 2.5t-41 6.5q-16 4 -29.5 6t-25.5 2t-23.5 -5t-15.5 -14h-43z" />
<glyph unicode="t" horiz-adv-x="647" d="M53 717v39q94 49 150.5 120.5t87.5 176.5h49v-230h297l-45 -106h-252v-447q0 -78 26.5 -133t94.5 -55q43 0 72.5 23.5t58.5 78.5l45 -34q-45 -98 -112.5 -135.5t-143.5 -37.5q-104 0 -170 63.5t-66 205.5v471h-92z" />
<glyph unicode="u" d="M41 739v45l270 62h51v-549q0 -84 34 -139.5t124 -55.5q43 0 94.5 24t130.5 79v420q0 33 -4 53t-22.5 33.5t-53 21.5t-96.5 15v49l320 49h51v-651q0 -63 9 -81t42 -18q16 0 34.5 3t51.5 10v-52l-284 -80h-48v156q-70 -45 -121 -74.5t-93 -48t-75.5 -26t-68.5 -7.5 q-113 0 -166 73t-53 192v364q0 39 -2 61.5t-14.5 35t-38 20.5t-72.5 16z" />
<glyph unicode="v" horiz-adv-x="1071" d="M33 772v51h479v-51q-76 -4 -104.5 -16.5t-28.5 -40.5q0 -12 7 -31.5t24 -58.5l184 -430l176 399q27 59 27 94q0 78 -144 84v51h383v-51q-35 -2 -59.5 -10t-45 -27.5t-39 -53.5t-42.5 -87l-272 -617h-91l-299 676q-29 68 -58.5 92.5t-96.5 26.5z" />
<glyph unicode="w" horiz-adv-x="1587" d="M27 772v51h458v-51h-13q-50 0 -72 -14q-26 -16 -25 -37q0 -10 3 -23.5t11 -29.5l189 -459l186 430q-18 41 -34.5 65.5t-37 40t-48.5 21.5t-66 6v51h481v-51q-59 0 -85 -14.5t-26 -46.5q0 -25 29 -95l164 -397l151 365q20 47 27.5 72.5t7.5 45.5q0 39 -28.5 53.5 t-104.5 16.5v51h367v-51q-37 -2 -61.5 -9t-45 -28.5t-41 -62.5t-49.5 -113l-244 -582h-82l-235 568l-244 -568h-90l-262 629q-23 53 -42.5 86t-39 50.5t-44 23.5t-54.5 6z" />
<glyph unicode="x" d="M31 0v51q25 0 46 4t45.5 17.5t55.5 38t74 65.5l217 207l-197 252q-59 78 -114.5 107.5t-114.5 29.5v51h489v-51q-47 0 -67.5 -8t-20.5 -25q0 -10 7.5 -24.5t29.5 -42.5l123 -160l103 102q37 37 51 58.5t14 40.5q0 33 -24.5 46t-79.5 13v51h395v-51q-37 0 -65.5 -6 t-56.5 -19.5t-56.5 -38t-65.5 -61.5l-182 -180l219 -279q35 -43 60.5 -69.5t50 -41t51 -20.5t59.5 -6v-51h-493v51q53 0 72.5 8.5t19.5 30.5q0 14 -10.5 32.5t-36.5 53.5l-125 162l-142 -141q-35 -35 -46 -52.5t-11 -35.5q0 -57 131 -58v-51h-405z" />
<glyph unicode="y" horiz-adv-x="995" d="M-4 772v51h479v-51q-70 0 -94.5 -14.5t-24.5 -42.5q0 -16 6.5 -34.5t22.5 -51.5l193 -402l143 320q25 53 35 89t10 58q0 45 -30.5 61.5t-98.5 16.5v51h362v-51q-61 -2 -96 -36t-76 -126l-374 -837q-57 -129 -109.5 -188.5t-118.5 -59.5q-47 0 -77.5 29.5t-30.5 74.5 q0 49 26.5 68.5t63.5 30t78 19.5t71 40q8 8 18.5 19.5t24 34t33 60.5t43.5 99l-301 629q-25 49 -41 77.5t-34.5 43t-42 18.5t-60.5 4z" />
<glyph unicode="z" horiz-adv-x="960" d="M76 0v66l524 665h-303q-37 0 -60.5 -5t-39 -25.5t-26.5 -61.5t-26 -111h-61l61 340h52q6 -27 22 -37q18 -8 70 -8h575v-67l-530 -664h317q43 0 72 4t48.5 19.5t36.5 46.5t40 82h57l-92 -244h-737z" />
<glyph unicode="{" horiz-adv-x="806" d="M166 420v45q98 14 156.5 71.5t58.5 139.5q0 35 -7 76t-16.5 83t-16.5 82.5t-7 77.5q0 63 28.5 127t81 116t123 86t156.5 36v-39q-51 -6 -91 -27.5t-67.5 -51.5t-42 -62.5t-14.5 -63.5q0 -23 7 -65.5t17 -94.5q8 -49 15.5 -99t7.5 -85q0 -51 -21.5 -101t-61.5 -94.5 t-96.5 -79t-127.5 -55.5v2v-4q72 -18 128 -53t96 -79t61.5 -94t21.5 -101q0 -35 -7 -85.5t-16.5 -99.5t-16.5 -93t-7 -66q0 -31 14.5 -64t42 -62.5t67.5 -51t91 -27.5v-39q-86 2 -156.5 35.5t-123 86t-81 116t-28.5 126.5q0 37 7 78t17 82q8 43 15.5 84t7.5 76 q0 82 -58.5 139.5t-156.5 71.5z" />
<glyph unicode="|" horiz-adv-x="1079" d="M471 -328v1702h137v-1702h-137z" />
<glyph unicode="}" horiz-adv-x="806" d="M84 -436q51 6 91 27.5t67.5 51t42 62.5t14.5 64q0 23 -7 66.5t-16 92.5q-10 51 -17 100.5t-7 84.5q0 51 21.5 101t61.5 94t96 79t128 55v-2v4q-72 18 -128 53t-96 79.5t-61.5 94.5t-21.5 101q0 35 7 85t16.5 99.5t16.5 93.5t7 66q0 31 -14.5 63.5t-42 62.5t-67.5 51.5 t-91 27.5v39q86 -2 156.5 -36t123 -86t81 -115.5t28.5 -127.5q0 -35 -7 -76.5t-15 -82.5q-10 -43 -17.5 -84t-7.5 -76q0 -82 58.5 -139.5t156.5 -71.5v-45q-98 -14 -156.5 -71.5t-58.5 -139.5q0 -35 7 -76t16.5 -83t16.5 -83t7 -78q0 -63 -28.5 -126.5t-81 -116t-123 -86 t-156.5 -35.5v39z" />
<glyph unicode="~" horiz-adv-x="1366" d="M211 530q4 123 62.5 202t162.5 79q66 0 135.5 -24.5t137.5 -55.5q70 -29 132 -54.5t111 -25.5q66 0 105 41t47 117h51q-4 -129 -66.5 -205t-166.5 -76q-57 0 -126 26t-139 54q-68 29 -132 53.5t-111 24.5q-127 0 -152 -156h-51z" />
<glyph unicode="&#xa1;" horiz-adv-x="591" d="M160 733q0 53 36.5 83t98.5 30q63 0 100 -30t37 -83t-39 -86t-98 -33t-97 33t-38 86zM176 -461q0 10 2 17l92 870h52l94 -870q0 -12 1 -19.5t1 -13.5q0 -23 -12.5 -28t-57.5 -5h-104q-43 0 -55.5 5t-12.5 28v16z" />
<glyph unicode="&#xa2;" horiz-adv-x="923" d="M86 379q0 98 35 184t101.5 148.5t161.5 98.5t216 36l123 428h61l-122 -432q92 -8 146 -46t54 -91q0 -35 -24.5 -58.5t-63.5 -23.5q-14 0 -27.5 3t-30 13t-38 28.5t-53.5 51.5l-179 -623q29 -10 50.5 -15t48.5 -5q147 0 274 155l39 -34q-98 -125 -200.5 -177.5 t-245.5 -39.5l-131 -455h-60l133 467q-129 35 -198.5 137t-69.5 250zM289 434q0 -102 25.5 -174t80.5 -127l180 629q-18 12 -32.5 15t-32.5 3q-47 0 -88 -26.5t-70.5 -73.5t-46 -110.5t-16.5 -135.5z" />
<glyph unicode="&#xa3;" horiz-adv-x="1642" d="M74 -389q0 121 243 227q74 137 144 303h-303l14 66h313q88 233 158 397t129 278.5t112.5 188.5t104.5 125q88 88 176 122t166 34q53 0 101.5 -13.5t84 -36t56 -53t20.5 -65.5t-25.5 -59.5t-62.5 -24.5q-39 0 -66.5 25.5t-54 56t-57.5 56.5t-74 26q-66 0 -108 -50 q-61 -70 -109.5 -178t-101.5 -241t-116.5 -284t-155.5 -304h366l-12 -66h-395q-12 -20 -34 -53t-46.5 -68.5t-49 -70.5t-47.5 -62l5 -4q47 20 109.5 33.5t117.5 13.5q96 0 172 -44t142.5 -96t130 -96t132.5 -44q61 0 104.5 38t43.5 93q0 27 -9.5 50.5t-21.5 46t-21.5 44 t-9.5 45.5q0 39 25 63.5t61 24.5q53 0 85 -46t32 -120q0 -72 -31.5 -135t-87 -110t-129 -75t-155.5 -28q-111 0 -190 46t-146.5 101.5t-132 101.5t-146.5 46q-37 0 -70.5 -8t-74.5 -31q-47 -121 -110.5 -188.5t-127.5 -67.5q-68 0 -67 70z" />
<glyph unicode="&#xa4;" horiz-adv-x="1366" d="M182 274l129 127q-47 68 -66.5 129.5t-19.5 137.5q0 74 19.5 135t66.5 131l-129 127l107 106l129 -129q72 47 133 66.5t133 19.5q76 0 135.5 -19.5t130.5 -66.5l127 129l105 -106l-127 -129q47 -68 66.5 -129.5t19.5 -134.5q0 -74 -19.5 -136.5t-66.5 -130.5l127 -127 l-105 -106l-127 127q-70 -47 -131 -66.5t-135 -19.5q-76 0 -137.5 20.5t-128.5 65.5l-129 -127zM375 668q0 -63 24.5 -119.5t66.5 -98.5t98.5 -67t119.5 -25t118.5 25t97.5 67t66.5 98t24.5 120q0 63 -24.5 118.5t-66.5 97.5t-97 66.5t-119 24.5q-63 0 -119.5 -24.5 t-98.5 -66.5t-66.5 -97.5t-24.5 -118.5z" />
<glyph unicode="&#xa5;" horiz-adv-x="1476" d="M98 1219v55h617v-55q-84 0 -114 -15.5t-30 -44.5q0 -20 14.5 -50t55.5 -87l178 -260l160 248q35 57 51.5 90t16.5 55q0 35 -31 49.5t-101 14.5v55h482v-55q-55 -6 -94 -17.5t-72 -37t-68 -73t-84 -126.5l-174 -279h479v-65h-507v-164h507v-66h-507v-158q0 -57 6 -92 t26.5 -54t59.5 -25.5t102 -6.5v-55h-618v55q59 0 97 5.5t59.5 23.5t30.5 55t9 101v151h-508v66h508v164h-508v65h465l-252 367q-39 55 -65.5 86.5t-53 49t-58.5 23t-79 7.5z" />
<glyph unicode="&#xa6;" horiz-adv-x="1079" d="M471 -328v727h137v-727h-137zM471 647v727h137v-727h-137z" />
<glyph unicode="&#xa7;" horiz-adv-x="940" d="M92 772q0 111 37 206t102.5 165.5t153.5 111.5t188 41q45 0 88.5 -11t77 -29.5t54 -42t20.5 -48.5q0 -35 -22.5 -60.5t-51.5 -25.5q-27 0 -55.5 22.5t-60 49.5t-66.5 49.5t-76 22.5q-53 0 -96 -37t-43 -84q0 -37 16.5 -77t41 -80t50 -75.5t44.5 -64.5l178 -275 q53 -82 87 -149.5t53 -124.5t26.5 -108.5t7.5 -98.5q0 -121 -44 -214t-111.5 -156.5t-149.5 -95.5t-160 -32q-49 0 -93 11.5t-78 30t-53.5 42t-19.5 50.5q0 33 23.5 57.5t52.5 24.5q25 0 50.5 -23t53 -48.5t59.5 -48t73 -22.5q25 0 52 9.5t48.5 25.5t36 38.5t14.5 51.5 q0 37 -32.5 103.5t-75.5 132.5l-238 358q-78 121 -120 225.5t-42 202.5zM186 827q0 -86 27 -166.5t90 -181.5l240 -385q35 -57 58.5 -99t38.5 -77t22.5 -68.5t11.5 -72.5q45 53 61.5 103t16.5 114q0 84 -29 189.5t-121 250.5l-213 334q-57 90 -90 165t-31 134l-4 4 q-41 -59 -59.5 -115.5t-18.5 -128.5z" />
<glyph unicode="&#xa8;" horiz-adv-x="681" d="M80 1133q0 43 30.5 73.5t73.5 30.5t74 -30.5t31 -73.5t-31 -74t-74 -31t-73.5 31t-30.5 74zM395 1133q0 43 31 73.5t74 30.5t73.5 -30.5t30.5 -73.5t-30.5 -74t-73.5 -31t-74 31t-31 74z" />
<glyph unicode="&#xa9;" horiz-adv-x="1529" d="M57 676q0 147 55.5 276t151.5 225.5t225.5 151.5t276.5 55t276 -55t225.5 -151.5t152 -225.5t55.5 -276t-55.5 -276.5t-152 -225.5t-225.5 -151.5t-276 -55.5t-276.5 55.5t-225.5 151.5t-151.5 225t-55.5 277zM119 676q0 -135 51 -253t138 -205t205 -138t253 -51t253 51 t205 138t138 205t51 253t-51 253t-138 205t-205 138t-253 51t-253 -51t-205 -138t-138 -205t-51 -253zM305 670q0 98 38 183t104.5 146.5t157.5 97.5t198 36q47 0 82 -7.5t61.5 -15.5t46 -15.5t35.5 -7.5q20 0 30.5 12.5t16.5 33.5h39l21 -281h-39q-72 238 -303 238 q-147 0 -234.5 -104.5t-87.5 -285.5q0 -113 26.5 -191.5t71.5 -127.5t105.5 -71.5t128.5 -22.5q195 0 311 162l39 -19q-139 -203 -385 -203q-98 0 -183 34t-146.5 93.5t-97.5 140t-36 175.5z" />
<glyph unicode="&#xaa;" horiz-adv-x="571" d="M47 907q0 23 8 45.5t25 38.5q18 18 47 28.5t63.5 21t72.5 23.5t75 36v37q0 61 -18.5 88.5t-59.5 27.5q-61 0 -65 -47q2 -10 4 -15t12 -22l-135 -51q-23 25 -23 45q0 25 22.5 50.5t58.5 46t80 34t87 13.5q86 0 134 -36t48 -116v-262q0 -29 21 -29q18 0 65 35l19 -35 q-51 -45 -93 -62.5t-73 -17.5q-70 0 -84 66q-37 -35 -71 -50.5t-74 -15.5q-63 0 -104.5 35t-41.5 88zM201 920q0 -29 13 -47.5t36 -18.5q27 0 44 16.5t44 28.5v150q-27 -16 -51.5 -27.5t-44 -24t-30.5 -30t-11 -47.5z" />
<glyph unicode="&#xab;" horiz-adv-x="718" d="M45 449l336 374h53l-192 -374l192 -377h-53zM389 449l238 342h49l-92 -342l92 -345h-49z" />
<glyph unicode="&#xac;" horiz-adv-x="1366" d="M209 715v137h948v-545h-137v408h-811z" />
<glyph unicode="&#xad;" horiz-adv-x="794" d="M55 326v170h682v-170h-682z" />
<glyph unicode="&#xae;" horiz-adv-x="1529" d="M57 676q0 147 55.5 276t151.5 225.5t225.5 151.5t276.5 55t276 -55t225.5 -151.5t152 -225.5t55.5 -276t-55.5 -276.5t-152 -225.5t-225.5 -151.5t-276 -55.5t-276.5 55.5t-225.5 151.5t-151.5 225t-55.5 277zM119 676q0 -135 51 -253t138 -205t205 -138t253 -51t253 51 t205 138t138 205t51 253t-51 253t-138 205t-205 138t-253 51t-253 -51t-205 -138t-138 -205t-51 -253zM360 246v33q57 0 81 22.5t24 65.5v622q0 41 -17.5 63.5t-74.5 22.5v37h385q135 0 217 -61.5t82 -163.5q0 -166 -223 -221l208 -299q35 -49 59.5 -66.5t61.5 -21.5v-33 h-184l-295 405h-74v-295q0 -41 24.5 -59t92.5 -18v-33h-367zM610 694h39q47 0 91 10.5t79 32t55.5 56t20.5 84.5q0 82 -57.5 136t-145.5 54q-23 0 -39 -3t-43 -11v-359z" />
<glyph unicode="&#xaf;" horiz-adv-x="681" d="M63 961v145h553v-145h-553z" />
<glyph unicode="&#xb0;" horiz-adv-x="819" d="M127 1024q0 59 22.5 110.5t60.5 89.5t90.5 60.5t109.5 22.5q59 0 110 -22.5t89 -60.5t60.5 -89.5t22.5 -110.5q0 -57 -22.5 -109.5t-60.5 -90.5t-89 -60.5t-110 -22.5q-57 0 -109.5 22.5t-90.5 60.5t-60.5 90.5t-22.5 109.5zM219 1024q0 -78 56.5 -134t134.5 -56t134 56 t56 134t-56 134t-134 56t-134.5 -56t-56.5 -134z" />
<glyph unicode="&#xb1;" horiz-adv-x="1366" d="M209 -43v137h948v-137h-948zM209 655v138h405v405h138v-405h405v-138h-405v-405h-138v405h-405z" />
<glyph unicode="&#xb2;" horiz-adv-x="626" d="M49 625v34q18 18 48 47t64 60t67.5 61.5t58.5 55.5q59 59 86.5 106t27.5 101q0 57 -35.5 93t-93.5 36q-119 0 -153 -129h-56q23 104 89.5 160.5t166.5 56.5q47 0 88.5 -14.5t72 -41t48 -60.5t17.5 -75t-14.5 -75.5t-59.5 -79.5q-25 -25 -60.5 -53.5t-75.5 -59.5 t-78 -62.5t-67 -62.5h234q53 0 70.5 14.5t27.5 67.5h49l-24 -180h-498z" />
<glyph unicode="&#xb3;" horiz-adv-x="626" d="M49 696q0 20 19.5 34.5t48.5 14.5t49 -13t37.5 -30.5t36 -31t45.5 -13.5q55 0 91 48.5t36 121.5q0 131 -109 131q-16 0 -32.5 -3t-43.5 -11l-16 27q78 59 110.5 97t32.5 73q0 37 -25.5 61.5t-64.5 24.5t-67.5 -20.5t-63.5 -73.5l-47 14q72 160 233 160q72 0 120 -35 t48 -88q0 -41 -25.5 -76t-84.5 -70q78 -12 126 -52t48 -126q0 -51 -24.5 -97t-66.5 -80t-98.5 -53.5t-121.5 -19.5q-78 0 -134.5 26t-56.5 60z" />
<glyph unicode="&#xb4;" horiz-adv-x="681" d="M205 1008l96 299h225l-270 -299h-51z" />
<glyph unicode="&#xb5;" horiz-adv-x="1024" d="M23 -299q0 35 9 78t21.5 95t21.5 113.5t9 135.5v723h195v-551q0 -84 35.5 -138.5t121.5 -54.5q43 0 94.5 24t131.5 79v641h194v-613q0 -76 14.5 -107.5t47.5 -31.5q51 0 67 121h37q2 -117 -60.5 -177.5t-142.5 -60.5q-133 0 -157 156q-68 -45 -120.5 -74.5t-93 -48 t-75.5 -26t-68 -7.5q-86 0 -149 52q0 -49 7 -96.5t16 -89.5t16.5 -75.5t7.5 -58.5q0 -49 -26.5 -79.5t-70.5 -30.5q-39 0 -61 27.5t-22 74.5z" />
<glyph unicode="&#xb6;" horiz-adv-x="1105" d="M82 897q0 178 118.5 277.5t331.5 99.5h494v-55h-131v-1694h-74v1694h-186v-1694h-74v993q-125 0 -216 27.5t-149.5 78t-86 120t-27.5 153.5z" />
<glyph unicode="&#xb7;" horiz-adv-x="591" d="M160 633q0 53 39 86t98 33t97 -33t38 -86t-37 -83t-98 -30q-63 0 -100 30t-37 83z" />
<glyph unicode="&#xb8;" horiz-adv-x="681" d="M158 -295q10 -2 25.5 -3t23.5 -1q16 0 38.5 5t42 16.5t33 30t13.5 46.5q0 80 -115 86l125 115h102l-45 -51q33 -10 50.5 -25.5t25.5 -34t9 -37t1 -34.5q0 -39 -21.5 -69t-57 -49t-79.5 -29.5t-89 -10.5q-23 0 -37.5 1t-44.5 5v39z" />
<glyph unicode="&#xb9;" horiz-adv-x="626" d="M84 1147q74 35 130 76t97 84h70v-600q0 -27 8 -34t37 -7h72v-41h-367v41h68q33 0 40 7t7 34v467q-47 -25 -73 -35.5t-71 -26.5z" />
<glyph unicode="&#xba;" horiz-adv-x="702" d="M39 1038q0 59 23.5 108.5t65.5 84.5t100.5 55.5t125.5 20.5q68 0 124.5 -19.5t98 -54.5t64.5 -82t23 -104q0 -55 -24 -103.5t-66 -84.5t-99 -55.5t-123 -19.5q-68 0 -126 19.5t-99 53.5t-64.5 80t-23.5 101zM193 1087q0 -53 14 -99t39.5 -81t58.5 -54t70 -19q61 0 98 48 t37 128q0 53 -13.5 98t-38 78t-57 52t-69.5 19q-72 0 -105.5 -52t-33.5 -118z" />
<glyph unicode="&#xbb;" horiz-adv-x="718" d="M43 104l94 345l-94 342h49l238 -342l-238 -345h-49zM285 72l194 377l-194 374h53l336 -374l-336 -377h-53z" />
<glyph unicode="&#xbc;" horiz-adv-x="1587" d="M84 1147q74 35 130 76t97 84h70v-600q0 -27 8 -34t37 -7h72v-41h-367v41h68q35 0 41 7t6 34v467q-47 -25 -73 -35.5t-71 -26.5zM199 -80l893 1387h125l-893 -1387h-125zM817 135v43l357 459h67v-430h111v-72h-111v-194h-135v194h-289zM907 207h199v254h-4z" />
<glyph unicode="&#xbd;" horiz-adv-x="1587" d="M84 1147q74 35 130 76t97 84h70v-600q0 -27 8 -34t37 -7h72v-41h-367v41h68q35 0 41 7t6 34v467q-47 -25 -73 -35.5t-71 -26.5zM199 -80l893 1387h125l-893 -1387h-125zM866 -8q18 18 48 47t64 59.5t67.5 61t58.5 55.5q59 59 87 106.5t28 100.5q0 57 -36 93t-93 36 q-119 0 -154 -129h-55q23 104 89 160.5t167 56.5q47 0 88 -14.5t71.5 -41t48 -60.5t17.5 -74q0 -41 -14.5 -76t-59.5 -80q-25 -25 -60.5 -53.5t-75.5 -59t-78 -62.5t-66 -63h233q53 0 70.5 14.5t27.5 67.5h50l-25 -180h-498v35z" />
<glyph unicode="&#xbe;" horiz-adv-x="1587" d="M70 696q0 20 19.5 34.5t47.5 14.5q29 0 49.5 -13t38 -30.5t36 -31t44.5 -13.5q55 0 91 48.5t36 121.5q0 131 -108 131q-16 0 -33 -3t-43 -11l-17 27q78 59 111 97t33 73q0 37 -25.5 61.5t-64.5 24.5t-68 -20.5t-63 -73.5l-48 14q72 160 234 160q72 0 120 -35t48 -88 q0 -41 -25.5 -76t-85.5 -70q78 -12 126 -52t48 -126q0 -51 -24.5 -97t-66.5 -80t-98 -53.5t-122 -19.5q-78 0 -134 26t-56 60zM240 -80l893 1387h124l-892 -1387h-125zM858 135v43l356 459h68v-430h111v-72h-111v-194h-135v194h-289zM948 207h199v254h-4z" />
<glyph unicode="&#xbf;" horiz-adv-x="737" d="M80 -94q0 78 22.5 138t75.5 114q47 47 98.5 66.5t94.5 31.5t70.5 28.5t27.5 55.5t-33 102h58q43 -72 62 -125t19 -98q0 -51 -30.5 -80.5t-76.5 -50t-100.5 -36t-100.5 -38t-76.5 -58.5t-30.5 -95q0 -70 45 -112t119 -42q18 0 46.5 4t59.5 8.5t60.5 8.5t52.5 4 q106 0 106 -88q0 -55 -50 -87t-140 -32q-94 0 -166 34.5t-119 90t-70.5 123t-23.5 133.5zM307 733q0 53 37 83t98 30q63 0 100.5 -30t37.5 -83t-39.5 -86t-98.5 -33t-97 33t-38 86z" />
<glyph unicode="&#xc0;" horiz-adv-x="1456" d="M20 0v55q51 0 84 7.5t56.5 27t42 55t39.5 95.5l370 1015l-16 52h229l400 -1067q23 -59 40 -96.5t38.5 -56.5t51 -25.5t79.5 -6.5v-55h-609v55q121 0 164 15.5t43 60.5q0 35 -28 109l-99 254h-469l-100 -273q-20 -55 -21 -86q0 -45 41 -64.5t164 -15.5v-55h-500zM475 596 h391l-196 518zM543 1710h225l96 -299h-51z" />
<glyph unicode="&#xc1;" horiz-adv-x="1456" d="M20 0v55q51 0 84 7.5t56.5 27t42 55t39.5 95.5l370 1015l-16 52h229l400 -1067q23 -59 40 -96.5t38.5 -56.5t51 -25.5t79.5 -6.5v-55h-609v55q121 0 164 15.5t43 60.5q0 35 -28 109l-99 254h-469l-100 -273q-20 -55 -21 -86q0 -45 41 -64.5t164 -15.5v-55h-500zM475 596 h391l-196 518zM592 1411l96 299h225l-270 -299h-51z" />
<glyph unicode="&#xc2;" horiz-adv-x="1456" d="M20 0v55q51 0 84 7.5t56.5 27t42 55t39.5 95.5l370 1015l-16 52h229l400 -1067q23 -59 40 -96.5t38.5 -56.5t51 -25.5t79.5 -6.5v-55h-609v55q121 0 164 15.5t43 60.5q0 35 -28 109l-99 254h-469l-100 -273q-20 -55 -21 -86q0 -45 41 -64.5t164 -15.5v-55h-500zM442 1378 l191 399h186l193 -399h-86l-199 235l-199 -235h-86zM475 596h391l-196 518z" />
<glyph unicode="&#xc3;" horiz-adv-x="1456" d="M20 0v55q51 0 84 7.5t56.5 27t42 55t39.5 95.5l370 1015l-16 52h229l400 -1067q23 -59 40 -96.5t38.5 -56.5t51 -25.5t79.5 -6.5v-55h-609v55q121 0 164 15.5t43 60.5q0 35 -28 109l-99 254h-469l-100 -273q-20 -55 -21 -86q0 -45 41 -64.5t164 -15.5v-55h-500zM448 1417 q-4 49 9.5 92t38 74.5t57.5 49t67 17.5q45 0 79 -15t65 -34.5t61.5 -35t67.5 -15.5q49 0 74 100h36q6 -45 -5 -87t-33.5 -74.5t-56.5 -52t-75 -19.5q-43 0 -80.5 15t-71.5 34.5t-63.5 35t-58.5 15.5q-35 0 -52.5 -32.5t-17.5 -67.5h-41zM475 596h391l-196 518z" />
<glyph unicode="&#xc4;" horiz-adv-x="1456" d="M20 0v55q51 0 84 7.5t56.5 27t42 55t39.5 95.5l370 1015l-16 52h229l400 -1067q23 -59 40 -96.5t38.5 -56.5t51 -25.5t79.5 -6.5v-55h-609v55q121 0 164 15.5t43 60.5q0 35 -28 109l-99 254h-469l-100 -273q-20 -55 -21 -86q0 -45 41 -64.5t164 -15.5v-55h-500zM467 1536 q0 43 30.5 73.5t73.5 30.5t74 -30.5t31 -73.5t-31 -74t-74 -31t-73.5 31t-30.5 74zM475 596h391l-196 518zM782 1536q0 43 31 73.5t74 30.5t73.5 -30.5t30.5 -73.5t-30.5 -74t-73.5 -31t-74 31t-31 74z" />
<glyph unicode="&#xc5;" horiz-adv-x="1456" d="M20 0v55q51 0 84 7.5t56.5 27t42 55t39.5 95.5l370 1015l-16 52h229l400 -1067q23 -59 40 -96.5t38.5 -56.5t51 -25.5t79.5 -6.5v-55h-609v55q121 0 164 15.5t43 60.5q0 35 -28 109l-99 254h-469l-100 -273q-20 -55 -21 -86q0 -45 41 -64.5t164 -15.5v-55h-500zM475 596 h391l-196 518zM555 1531q0 72 51 122t123 50t122 -50t50 -122t-50 -123t-122 -51t-123 51.5t-51 122.5zM618 1531q0 -47 31 -78.5t78 -31.5t79 31.5t32 78.5t-32 78t-79 31t-78 -30.5t-31 -78.5z" />
<glyph unicode="&#xc6;" horiz-adv-x="1808" d="M-90 0v55q39 4 66.5 11.5t50 25t46 49t54.5 82.5l498 819q49 80 49 119q0 31 -23.5 44.5t-81.5 13.5v55h1088l18 -307h-57q-12 72 -27.5 114.5t-38 65t-57.5 29t-86 6.5h-330v-477h287q47 0 75.5 5t45 22.5t24 48t9.5 79.5h57v-411h-57q-6 55 -14.5 86.5t-24 49t-43 22.5 t-72.5 5h-287v-374q0 -47 4 -76t16.5 -44.5t37 -20.5t63.5 -5h193q78 0 127 7t80.5 32t52 70t41.5 121h57l-31 -322h-1095v55q78 0 124 10.5t68.5 34t28.5 62.5t6 98v219h-455l-145 -241q-29 -45 -40 -73t-11 -44q0 -33 35.5 -47.5t121.5 -18.5v-55h-448zM457 582h395v620 h-23z" />
<glyph unicode="&#xc7;" horiz-adv-x="1513" d="M102 612q0 131 45.5 256t137.5 222.5t233 157t336 59.5q84 0 154.5 -10.5t127 -23.5t96.5 -23.5t62 -10.5q23 0 37 14h51l11 -338h-62q-57 160 -177 243t-292 83q-115 0 -209 -41t-161.5 -116.5t-104.5 -182t-37 -235.5q0 -135 42 -249t116 -198t174 -131t217 -47 q152 0 280 77t214 224h61l-139 -342q-18 8 -32.5 11t-37.5 3q-35 0 -78 -7t-95 -16t-110.5 -16.5t-123.5 -7.5q-178 0 -315.5 49.5t-230.5 136.5t-141.5 204.5t-48.5 254.5zM547 -295q10 -2 25.5 -3t23.5 -1q16 0 38.5 5t42 16.5t33 30t13.5 46.5q0 80 -115 86l125 115h103 l-45 -51q33 -10 50 -25.5t25 -34t9.5 -37t1.5 -34.5q0 -39 -21.5 -69t-57.5 -49t-80 -29.5t-89 -10.5q-23 0 -37 1t-45 5v39z" />
<glyph unicode="&#xc8;" horiz-adv-x="1179" d="M20 0v55q61 0 102.5 6.5t64 21.5t31.5 43t9 71v882q0 51 -12 79t-38.5 41t-64.5 16.5t-92 3.5v55h1047l18 -307h-55l-10 43q-14 63 -30.5 98t-38 51.5t-54.5 19.5t-82 3h-360v-477h317q45 0 72.5 4t44 20t25 47t12.5 84h55v-411h-55q-6 55 -14.5 86.5t-26 49t-44 22.5 t-69.5 5h-317v-372q0 -47 4 -77t17 -45.5t37 -20.5t62 -5h228q78 0 127 7t81.5 32t53 70t41.5 121h55l-31 -322h-1110zM406 1710h225l96 -299h-51z" />
<glyph unicode="&#xc9;" horiz-adv-x="1179" d="M20 0v55q61 0 102.5 6.5t64 21.5t31.5 43t9 71v882q0 51 -12 79t-38.5 41t-64.5 16.5t-92 3.5v55h1047l18 -307h-55l-10 43q-14 63 -30.5 98t-38 51.5t-54.5 19.5t-82 3h-360v-477h317q45 0 72.5 4t44 20t25 47t12.5 84h55v-411h-55q-6 55 -14.5 86.5t-26 49t-44 22.5 t-69.5 5h-317v-372q0 -47 4 -77t17 -45.5t37 -20.5t62 -5h228q78 0 127 7t81.5 32t53 70t41.5 121h55l-31 -322h-1110zM455 1411l96 299h225l-270 -299h-51z" />
<glyph unicode="&#xca;" horiz-adv-x="1179" d="M20 0v55q61 0 102.5 6.5t64 21.5t31.5 43t9 71v882q0 51 -12 79t-38.5 41t-64.5 16.5t-92 3.5v55h1047l18 -307h-55l-10 43q-14 63 -30.5 98t-38 51.5t-54.5 19.5t-82 3h-360v-477h317q45 0 72.5 4t44 20t25 47t12.5 84h55v-411h-55q-6 55 -14.5 86.5t-26 49t-44 22.5 t-69.5 5h-317v-372q0 -47 4 -77t17 -45.5t37 -20.5t62 -5h228q78 0 127 7t81.5 32t53 70t41.5 121h55l-31 -322h-1110zM305 1378l191 399h186l193 -399h-86l-199 235l-199 -235h-86z" />
<glyph unicode="&#xcb;" horiz-adv-x="1179" d="M20 0v55q61 0 102.5 6.5t64 21.5t31.5 43t9 71v882q0 51 -12 79t-38.5 41t-64.5 16.5t-92 3.5v55h1047l18 -307h-55l-10 43q-14 63 -30.5 98t-38 51.5t-54.5 19.5t-82 3h-360v-477h317q45 0 72.5 4t44 20t25 47t12.5 84h55v-411h-55q-6 55 -14.5 86.5t-26 49t-44 22.5 t-69.5 5h-317v-372q0 -47 4 -77t17 -45.5t37 -20.5t62 -5h228q78 0 127 7t81.5 32t53 70t41.5 121h55l-31 -322h-1110zM330 1536q0 43 30.5 73.5t73.5 30.5t74 -30.5t31 -73.5t-31 -74t-74 -31t-73.5 31t-30.5 74zM645 1536q0 43 31 73.5t74 30.5t73.5 -30.5t30.5 -73.5 t-30.5 -74t-73.5 -31t-74 31t-31 74z" />
<glyph unicode="&#xcc;" horiz-adv-x="702" d="M66 0v55q61 -2 95 9.5t50 34t19 56t3 76.5v834q0 84 -30.5 120t-136.5 34v55h571v-55q-51 0 -85 -7.5t-54.5 -27t-28.5 -53t-8 -89.5v-796q0 -57 7 -95t25.5 -59.5t53.5 -30t90 -6.5v-55h-571zM166 1710h225l96 -299h-51z" />
<glyph unicode="&#xcd;" horiz-adv-x="702" d="M66 0v55q61 -2 95 9.5t50 34t19 56t3 76.5v834q0 84 -30.5 120t-136.5 34v55h571v-55q-51 0 -85 -7.5t-54.5 -27t-28.5 -53t-8 -89.5v-796q0 -57 7 -95t25.5 -59.5t53.5 -30t90 -6.5v-55h-571zM215 1411l96 299h225l-270 -299h-51z" />
<glyph unicode="&#xce;" horiz-adv-x="702" d="M65 1378l191 399h186l193 -399h-86l-199 235l-199 -235h-86zM66 0v55q61 -2 95 9.5t50 34t19 56t3 76.5v834q0 84 -30.5 120t-136.5 34v55h571v-55q-51 0 -85 -7.5t-54.5 -27t-28.5 -53t-8 -89.5v-796q0 -57 7 -95t25.5 -59.5t53.5 -30t90 -6.5v-55h-571z" />
<glyph unicode="&#xcf;" horiz-adv-x="702" d="M66 0v55q61 -2 95 9.5t50 34t19 56t3 76.5v834q0 84 -30.5 120t-136.5 34v55h571v-55q-51 0 -85 -7.5t-54.5 -27t-28.5 -53t-8 -89.5v-796q0 -57 7 -95t25.5 -59.5t53.5 -30t90 -6.5v-55h-571zM90 1536q0 43 30.5 73.5t73.5 30.5t74 -30.5t31 -73.5t-31 -74t-74 -31 t-73.5 31t-30.5 74zM405 1536q0 43 31 73.5t74 30.5t73.5 -30.5t30.5 -73.5t-30.5 -74t-73.5 -31t-74 31t-31 74z" />
<glyph unicode="&#xd0;" horiz-adv-x="1605" d="M47 0v55q66 0 104.5 6.5t58 24.5t26 51t6.5 84v346h-195v92h195v379q0 55 -8.5 91t-31 56.5t-59.5 27t-96 6.5v55q23 0 64 1t87 3l92 4t79 4q84 4 158.5 4h134.5q233 0 398 -43t259 -137q96 -96 136 -207.5t40 -228.5q0 -113 -42 -232.5t-138 -218t-251 -161t-380 -62.5 h-637zM469 205q0 -49 5 -79t21.5 -45t46 -19.5t79.5 -4.5q184 0 290.5 39t175.5 109q47 47 78 101t49.5 111.5t25.5 116t7 111.5q0 111 -31.5 227.5t-125.5 210.5q-76 78 -183.5 114t-288.5 36h-68.5t-80.5 -4v-570h236v-92h-236v-362z" />
<glyph unicode="&#xd1;" horiz-adv-x="1679" d="M51 0v55q55 -2 89 7.5t52.5 30t24.5 55t6 83.5v922q-37 33 -74.5 47t-97.5 19v55h371l913 -965v733q0 57 -6 92t-27.5 54.5t-61.5 25t-107 5.5v55h495v-55q-51 0 -86 -6.5t-55.5 -26t-29.5 -54t-9 -94.5v-1050h-111l-1001 1054v-786q0 -59 6 -100t27.5 -64.5t61.5 -32 t110 -4.5v-55h-490zM561 1417q-4 49 9.5 92t38 74.5t57.5 49t67 17.5q45 0 79 -15t65 -34.5t61.5 -35t67.5 -15.5q49 0 74 100h36q6 -45 -5 -87t-33.5 -74.5t-56.5 -52t-75 -19.5q-43 0 -80.5 15t-71.5 34.5t-63.5 35t-58.5 15.5q-35 0 -52.5 -32.5t-17.5 -67.5h-41z" />
<glyph unicode="&#xd2;" horiz-adv-x="1716" d="M111 602q0 154 55 283t155.5 223t237.5 146.5t299 52.5q166 0 303 -47.5t236.5 -133.5t154 -204.5t54.5 -262.5q0 -137 -53.5 -263t-151.5 -221t-238.5 -151.5t-312.5 -56.5q-160 0 -296 48t-234.5 132t-153.5 201t-55 254zM358 657q0 -154 45.5 -271.5t119 -195 t167.5 -117.5t193 -40q106 0 194 42t150.5 116.5t96.5 181t34 235.5q0 139 -38 255t-106.5 200t-164 131t-207.5 47q-111 0 -200 -41t-152.5 -116.5t-97.5 -183.5t-34 -243zM674 1710h225l96 -299h-51z" />
<glyph unicode="&#xd3;" horiz-adv-x="1716" d="M111 602q0 154 55 283t155.5 223t237.5 146.5t299 52.5q166 0 303 -47.5t236.5 -133.5t154 -204.5t54.5 -262.5q0 -137 -53.5 -263t-151.5 -221t-238.5 -151.5t-312.5 -56.5q-160 0 -296 48t-234.5 132t-153.5 201t-55 254zM358 657q0 -154 45.5 -271.5t119 -195 t167.5 -117.5t193 -40q106 0 194 42t150.5 116.5t96.5 181t34 235.5q0 139 -38 255t-106.5 200t-164 131t-207.5 47q-111 0 -200 -41t-152.5 -116.5t-97.5 -183.5t-34 -243zM723 1411l96 299h225l-270 -299h-51z" />
<glyph unicode="&#xd4;" horiz-adv-x="1716" d="M111 602q0 154 55 283t155.5 223t237.5 146.5t299 52.5q166 0 303 -47.5t236.5 -133.5t154 -204.5t54.5 -262.5q0 -137 -53.5 -263t-151.5 -221t-238.5 -151.5t-312.5 -56.5q-160 0 -296 48t-234.5 132t-153.5 201t-55 254zM358 657q0 -154 45.5 -271.5t119 -195 t167.5 -117.5t193 -40q106 0 194 42t150.5 116.5t96.5 181t34 235.5q0 139 -38 255t-106.5 200t-164 131t-207.5 47q-111 0 -200 -41t-152.5 -116.5t-97.5 -183.5t-34 -243zM573 1378l191 399h186l193 -399h-86l-199 235l-199 -235h-86z" />
<glyph unicode="&#xd5;" horiz-adv-x="1716" d="M111 602q0 154 55 283t155.5 223t237.5 146.5t299 52.5q166 0 303 -47.5t236.5 -133.5t154 -204.5t54.5 -262.5q0 -137 -53.5 -263t-151.5 -221t-238.5 -151.5t-312.5 -56.5q-160 0 -296 48t-234.5 132t-153.5 201t-55 254zM358 657q0 -154 45.5 -271.5t119 -195 t167.5 -117.5t193 -40q106 0 194 42t150.5 116.5t96.5 181t34 235.5q0 139 -38 255t-106.5 200t-164 131t-207.5 47q-111 0 -200 -41t-152.5 -116.5t-97.5 -183.5t-34 -243zM579 1417q-4 49 9.5 92t38 74.5t57.5 49t67 17.5q45 0 79 -15t65 -34.5t61.5 -35t67.5 -15.5 q49 0 74 100h36q6 -45 -5 -87t-33.5 -74.5t-56.5 -52t-75 -19.5q-43 0 -80.5 15t-71.5 34.5t-63.5 35t-58.5 15.5q-35 0 -52.5 -32.5t-17.5 -67.5h-41z" />
<glyph unicode="&#xd6;" horiz-adv-x="1716" d="M111 602q0 154 55 283t155.5 223t237.5 146.5t299 52.5q166 0 303 -47.5t236.5 -133.5t154 -204.5t54.5 -262.5q0 -137 -53.5 -263t-151.5 -221t-238.5 -151.5t-312.5 -56.5q-160 0 -296 48t-234.5 132t-153.5 201t-55 254zM358 657q0 -154 45.5 -271.5t119 -195 t167.5 -117.5t193 -40q106 0 194 42t150.5 116.5t96.5 181t34 235.5q0 139 -38 255t-106.5 200t-164 131t-207.5 47q-111 0 -200 -41t-152.5 -116.5t-97.5 -183.5t-34 -243zM598 1536q0 43 30.5 73.5t73.5 30.5t74 -30.5t31 -73.5t-31 -74t-74 -31t-73.5 31t-30.5 74z M913 1536q0 43 31 73.5t74 30.5t73.5 -30.5t30.5 -73.5t-30.5 -74t-73.5 -31t-74 31t-31 74z" />
<glyph unicode="&#xd7;" horiz-adv-x="1366" d="M246 233l342 342l-340 340l96 97l340 -340l340 340l96 -97l-340 -340l342 -342l-96 -96l-340 340l-342 -342z" />
<glyph unicode="&#xd8;" horiz-adv-x="1716" d="M111 602q0 154 55 283t155.5 223t237.5 146.5t299 52.5q154 0 281 -40t196 -96l207 207l49 -45l-198 -200q100 -86 156.5 -207t56.5 -267q0 -137 -53.5 -263t-151.5 -221t-238.5 -151.5t-312.5 -56.5q-141 0 -262 38t-211 99l-203 -204l-51 55l194 195q-98 86 -152 200.5 t-54 251.5zM358 657q0 -98 24 -196.5t71 -175.5l768 772q-66 80 -159 132t-220 52q-111 0 -200 -41t-152.5 -116.5t-97.5 -183t-34 -243.5zM494 223q68 -88 171 -139t218 -51q106 0 194 42t150.5 116.5t96.5 181t34 235.5t-30 229.5t-68 159.5z" />
<glyph unicode="&#xd9;" horiz-adv-x="1642" d="M39 1219v55h582v-55q-57 0 -92 -7.5t-54.5 -27t-27 -54t-7.5 -88.5v-550q0 -102 33 -177t91.5 -124.5t138 -73t176.5 -23.5q86 0 164.5 20.5t140 66.5t98.5 124t37 191v546q0 59 -7 94t-28.5 53.5t-60.5 24t-101 5.5v55h496v-55q-57 0 -94 -7.5t-57.5 -27t-27.5 -54 t-7 -88.5v-569q0 -121 -44.5 -215t-126 -158.5t-196.5 -98.5t-254 -34q-293 0 -445.5 134.5t-152.5 385.5v576q0 47 -7 76.5t-26.5 47t-53.5 25t-87 7.5zM637 1710h225l96 -299h-51z" />
<glyph unicode="&#xda;" horiz-adv-x="1642" d="M39 1219v55h582v-55q-57 0 -92 -7.5t-54.5 -27t-27 -54t-7.5 -88.5v-550q0 -102 33 -177t91.5 -124.5t138 -73t176.5 -23.5q86 0 164.5 20.5t140 66.5t98.5 124t37 191v546q0 59 -7 94t-28.5 53.5t-60.5 24t-101 5.5v55h496v-55q-57 0 -94 -7.5t-57.5 -27t-27.5 -54 t-7 -88.5v-569q0 -121 -44.5 -215t-126 -158.5t-196.5 -98.5t-254 -34q-293 0 -445.5 134.5t-152.5 385.5v576q0 47 -7 76.5t-26.5 47t-53.5 25t-87 7.5zM686 1411l96 299h225l-270 -299h-51z" />
<glyph unicode="&#xdb;" horiz-adv-x="1642" d="M39 1219v55h582v-55q-57 0 -92 -7.5t-54.5 -27t-27 -54t-7.5 -88.5v-550q0 -102 33 -177t91.5 -124.5t138 -73t176.5 -23.5q86 0 164.5 20.5t140 66.5t98.5 124t37 191v546q0 59 -7 94t-28.5 53.5t-60.5 24t-101 5.5v55h496v-55q-57 0 -94 -7.5t-57.5 -27t-27.5 -54 t-7 -88.5v-569q0 -121 -44.5 -215t-126 -158.5t-196.5 -98.5t-254 -34q-293 0 -445.5 134.5t-152.5 385.5v576q0 47 -7 76.5t-26.5 47t-53.5 25t-87 7.5zM536 1378l191 399h186l193 -399h-86l-199 235l-199 -235h-86z" />
<glyph unicode="&#xdc;" horiz-adv-x="1642" d="M39 1219v55h582v-55q-57 0 -92 -7.5t-54.5 -27t-27 -54t-7.5 -88.5v-550q0 -102 33 -177t91.5 -124.5t138 -73t176.5 -23.5q86 0 164.5 20.5t140 66.5t98.5 124t37 191v546q0 59 -7 94t-28.5 53.5t-60.5 24t-101 5.5v55h496v-55q-57 0 -94 -7.5t-57.5 -27t-27.5 -54 t-7 -88.5v-569q0 -121 -44.5 -215t-126 -158.5t-196.5 -98.5t-254 -34q-293 0 -445.5 134.5t-152.5 385.5v576q0 47 -7 76.5t-26.5 47t-53.5 25t-87 7.5zM561 1536q0 43 30.5 73.5t73.5 30.5t74 -30.5t31 -73.5t-31 -74t-74 -31t-73.5 31t-30.5 74zM876 1536q0 43 31 73.5 t74 30.5t73.5 -30.5t30.5 -73.5t-30.5 -74t-73.5 -31t-74 31t-31 74z" />
<glyph unicode="&#xdd;" horiz-adv-x="1513" d="M25 1219v55h616v-55q-84 0 -113.5 -15.5t-29.5 -44.5q0 -20 14 -50t55 -87l269 -383l233 371q35 57 51.5 90t16.5 55q0 35 -31 49.5t-100 14.5v55h481v-55q-55 -6 -94 -17.5t-72 -37t-67.5 -73t-84.5 -126.5l-276 -447v-285q0 -57 6 -92t26.5 -54t59.5 -25.5t102 -6.5 v-55h-618v55q59 0 97 5.5t59.5 23.5t31 55t9.5 101v260l-385 553q-39 55 -66 86.5t-53.5 49t-58 23t-78.5 7.5zM621 1411l96 299h225l-270 -299h-51z" />
<glyph unicode="&#xde;" horiz-adv-x="1142" d="M61 0v55q45 6 77 10.5t53.5 24t31.5 59t10 115.5v746q0 66 -6 105.5t-24.5 61t-52 29.5t-89.5 13v55h631v-55q-80 -2 -126 -11.5t-69.5 -33t-29.5 -61.5t-6 -99q33 6 81 12t89 6q98 0 187 -26.5t154.5 -76.5t104.5 -122t39 -160q0 -90 -36 -164.5t-100.5 -128t-153.5 -83 t-197 -29.5q-41 0 -83 5t-85 13q0 -68 9 -106.5t35.5 -60t72 -29t114.5 -9.5v-55h-631zM461 317q25 -8 45 -9t43 -1q72 0 130 25.5t100 72t65.5 108.5t23.5 138q0 51 -13 106.5t-48 100.5t-94.5 74t-151.5 29q-29 0 -53.5 -2.5t-46.5 -6.5v-635z" />
<glyph unicode="&#xdf;" horiz-adv-x="1087" d="M16 0v51q43 2 70 8.5t41 26.5t18.5 56t4.5 98v647q0 98 20 187t67.5 155.5t128 105.5t199.5 39q174 0 277.5 -80t103.5 -215q0 -115 -80 -197.5t-227 -123.5v-4q182 -33 275.5 -133.5t93.5 -260.5q0 -82 -28 -152.5t-76 -121.5t-114.5 -80t-144.5 -29q-86 0 -136 32 t-50 85q0 33 23.5 55.5t58.5 22.5q31 0 50 -17.5t35.5 -38t33 -38t40.5 -17.5q49 0 81 75t32 202q0 201 -83 294t-269 89v51q6 0 19.5 -1t21.5 -1q125 0 197.5 78t72.5 213q0 117 -55 186.5t-150 69.5q-117 0 -170 -82t-53 -223v-1012h-328z" />
<glyph unicode="&#xe0;" horiz-adv-x="905" d="M88 174q0 88 53 141q31 31 76 48.5t98 33.5t111.5 38t116.5 63v65q0 109 -34 158t-106 49q-47 0 -80.5 -25.5t-33.5 -60.5q0 -14 6 -30.5t14 -30.5l-186 -76q-25 33 -25 63q0 37 33 79t85 77t118.5 57.5t134.5 22.5q127 0 197.5 -59.5t70.5 -170.5v-458q0 -70 43 -70 q39 0 101 53l18 -37q-141 -127 -242 -127q-119 0 -114 127q-37 -29 -62.5 -52t-50 -39.5t-54.5 -26t-75 -9.5q-94 0 -153.5 55.5t-59.5 141.5zM269 1307h225l96 -299h-51zM293 195q0 -53 26.5 -87t69.5 -34q23 0 40 8t34 20q16 12 31.5 23.5t48.5 34.5v278 q-82 -49 -131.5 -78.5t-76 -53t-34.5 -48.5t-8 -63z" />
<glyph unicode="&#xe1;" horiz-adv-x="905" d="M88 174q0 88 53 141q31 31 76 48.5t98 33.5t111.5 38t116.5 63v65q0 109 -34 158t-106 49q-47 0 -80.5 -25.5t-33.5 -60.5q0 -14 6 -30.5t14 -30.5l-186 -76q-25 33 -25 63q0 37 33 79t85 77t118.5 57.5t134.5 22.5q127 0 197.5 -59.5t70.5 -170.5v-458q0 -70 43 -70 q39 0 101 53l18 -37q-141 -127 -242 -127q-119 0 -114 127q-37 -29 -62.5 -52t-50 -39.5t-54.5 -26t-75 -9.5q-94 0 -153.5 55.5t-59.5 141.5zM293 195q0 -53 26.5 -87t69.5 -34q23 0 40 8t34 20q16 12 31.5 23.5t48.5 34.5v278q-82 -49 -131.5 -78.5t-76 -53t-34.5 -48.5 t-8 -63zM318 1008l96 299h225l-270 -299h-51z" />
<glyph unicode="&#xe2;" horiz-adv-x="905" d="M88 174q0 88 53 141q31 31 76 48.5t98 33.5t111.5 38t116.5 63v65q0 109 -34 158t-106 49q-47 0 -80.5 -25.5t-33.5 -60.5q0 -14 6 -30.5t14 -30.5l-186 -76q-25 33 -25 63q0 37 33 79t85 77t118.5 57.5t134.5 22.5q127 0 197.5 -59.5t70.5 -170.5v-458q0 -70 43 -70 q39 0 101 53l18 -37q-141 -127 -242 -127q-119 0 -114 127q-37 -29 -62.5 -52t-50 -39.5t-54.5 -26t-75 -9.5q-94 0 -153.5 55.5t-59.5 141.5zM168 975l191 399h186l193 -399h-86l-199 235l-199 -235h-86zM293 195q0 -53 26.5 -87t69.5 -34q23 0 40 8t34 20q16 12 31.5 23.5 t48.5 34.5v278q-82 -49 -131.5 -78.5t-76 -53t-34.5 -48.5t-8 -63z" />
<glyph unicode="&#xe3;" horiz-adv-x="905" d="M88 174q0 88 53 141q31 31 76 48.5t98 33.5t111.5 38t116.5 63v65q0 109 -34 158t-106 49q-47 0 -80.5 -25.5t-33.5 -60.5q0 -14 6 -30.5t14 -30.5l-186 -76q-25 33 -25 63q0 37 33 79t85 77t118.5 57.5t134.5 22.5q127 0 197.5 -59.5t70.5 -170.5v-458q0 -70 43 -70 q39 0 101 53l18 -37q-141 -127 -242 -127q-119 0 -114 127q-37 -29 -62.5 -52t-50 -39.5t-54.5 -26t-75 -9.5q-94 0 -153.5 55.5t-59.5 141.5zM174 1014q-4 49 9.5 92t38 74.5t57.5 49t67 17.5q45 0 79 -15t65 -34.5t61.5 -35t67.5 -15.5q49 0 74 100h36q6 -45 -5 -87 t-33.5 -74.5t-56.5 -52t-75 -19.5q-43 0 -80.5 15t-71.5 34.5t-63.5 35t-58.5 15.5q-35 0 -52.5 -32.5t-17.5 -67.5h-41zM293 195q0 -53 26.5 -87t69.5 -34q23 0 40 8t34 20q16 12 31.5 23.5t48.5 34.5v278q-82 -49 -131.5 -78.5t-76 -53t-34.5 -48.5t-8 -63z" />
<glyph unicode="&#xe4;" horiz-adv-x="905" d="M88 174q0 88 53 141q31 31 76 48.5t98 33.5t111.5 38t116.5 63v65q0 109 -34 158t-106 49q-47 0 -80.5 -25.5t-33.5 -60.5q0 -14 6 -30.5t14 -30.5l-186 -76q-25 33 -25 63q0 37 33 79t85 77t118.5 57.5t134.5 22.5q127 0 197.5 -59.5t70.5 -170.5v-458q0 -70 43 -70 q39 0 101 53l18 -37q-141 -127 -242 -127q-119 0 -114 127q-37 -29 -62.5 -52t-50 -39.5t-54.5 -26t-75 -9.5q-94 0 -153.5 55.5t-59.5 141.5zM193 1133q0 43 30.5 73.5t73.5 30.5t74 -30.5t31 -73.5t-31 -74t-74 -31t-73.5 31t-30.5 74zM293 195q0 -53 26.5 -87t69.5 -34 q23 0 40 8t34 20q16 12 31.5 23.5t48.5 34.5v278q-82 -49 -131.5 -78.5t-76 -53t-34.5 -48.5t-8 -63zM508 1133q0 43 31 73.5t74 30.5t73.5 -30.5t30.5 -73.5t-30.5 -74t-73.5 -31t-74 31t-31 74z" />
<glyph unicode="&#xe5;" horiz-adv-x="905" d="M88 174q0 88 53 141q31 31 76 48.5t98 33.5t111.5 38t116.5 63v65q0 109 -34 158t-106 49q-47 0 -80.5 -25.5t-33.5 -60.5q0 -14 6 -30.5t14 -30.5l-186 -76q-25 33 -25 63q0 37 33 79t85 77t118.5 57.5t134.5 22.5q127 0 197.5 -59.5t70.5 -170.5v-458q0 -70 43 -70 q39 0 101 53l18 -37q-141 -127 -242 -127q-119 0 -114 127q-37 -29 -62.5 -52t-50 -39.5t-54.5 -26t-75 -9.5q-94 0 -153.5 55.5t-59.5 141.5zM281 1128q0 72 51 122t123 50t122 -50t50 -122t-50 -123t-122 -51t-123 51.5t-51 122.5zM293 195q0 -53 26.5 -87t69.5 -34 q23 0 40 8t34 20q16 12 31.5 23.5t48.5 34.5v278q-82 -49 -131.5 -78.5t-76 -53t-34.5 -48.5t-8 -63zM344 1128q0 -47 31 -78.5t78 -31.5t79 31.5t32 78.5t-32 78t-79 31t-78 -30.5t-31 -78.5z" />
<glyph unicode="&#xe6;" horiz-adv-x="1384" d="M84 172q0 41 14.5 78t40.5 63q29 29 77 48.5t103.5 38t112.5 40t107 56.5v98q0 72 -30 124t-106 52q-47 0 -80.5 -24.5t-33.5 -57.5q0 -37 18 -65q-14 -2 -39.5 -12.5t-54.5 -21.5t-53.5 -22.5t-36.5 -17.5q-25 35 -25 65q0 35 32 75t83 75t116.5 58.5t133.5 23.5 q158 0 231 -90q123 90 258 90q145 0 230 -84q41 -41 57 -79t27 -71q10 -33 21 -53t34 -35v-49h-588q0 -88 24.5 -158.5t64.5 -118.5t91.5 -74t106.5 -26q125 0 248 140l30 -35q-195 -225 -397 -226q-186 0 -299 168q-92 -90 -163.5 -129t-143.5 -39q-90 0 -150.5 56.5 t-60.5 138.5zM289 195q0 -53 26.5 -87t67.5 -34q61 0 156 76v288q-47 -37 -92.5 -61.5t-80 -48t-56 -54t-21.5 -79.5zM733 532h352q-6 117 -52 186.5t-118 69.5q-74 0 -125 -69.5t-57 -186.5z" />
<glyph unicode="&#xe7;" horiz-adv-x="923" d="M86 379q0 104 37 190t104.5 147.5t161.5 95.5t207 34q123 0 194.5 -38t71.5 -103q0 -35 -24.5 -58.5t-63.5 -23.5q-41 0 -72.5 24.5t-60.5 54t-59.5 54t-71.5 24.5q-47 0 -88 -26.5t-70.5 -73.5t-46 -109.5t-16.5 -136.5q0 -160 68.5 -259t181.5 -99q78 0 141 34.5 t139 120.5l39 -34q-166 -219 -395 -220q-84 0 -153.5 29t-119 82t-77 127t-27.5 164zM219 -295q10 -2 25.5 -3t23.5 -1q16 0 39 5t42.5 16.5t32.5 30t13 46.5q0 80 -114 86l125 115h102l-45 -51q33 -10 50 -25.5t25.5 -34t9.5 -37t1 -34.5q0 -39 -21.5 -69t-57.5 -49 t-80 -29.5t-89 -10.5q-23 0 -37 1t-45 5v39z" />
<glyph unicode="&#xe8;" horiz-adv-x="960" d="M82 389q0 100 31.5 184t88 144.5t134.5 94.5t170 34q84 0 148.5 -25.5t105.5 -66.5q35 -35 49 -70t23.5 -64.5t19.5 -52t37 -35.5v-57h-613q0 -86 23 -155.5t62.5 -118.5t96 -77t124.5 -28q129 0 258 144l39 -37q-78 -117 -179.5 -171.5t-236.5 -54.5q-106 0 -180 38 t-118 97.5t-63.5 132t-19.5 144.5zM276 532h377q-25 258 -182 259q-164 0 -195 -259zM295 1307h225l96 -299h-51z" />
<glyph unicode="&#xe9;" horiz-adv-x="960" d="M82 389q0 100 31.5 184t88 144.5t134.5 94.5t170 34q84 0 148.5 -25.5t105.5 -66.5q35 -35 49 -70t23.5 -64.5t19.5 -52t37 -35.5v-57h-613q0 -86 23 -155.5t62.5 -118.5t96 -77t124.5 -28q129 0 258 144l39 -37q-78 -117 -179.5 -171.5t-236.5 -54.5q-106 0 -180 38 t-118 97.5t-63.5 132t-19.5 144.5zM276 532h377q-25 258 -182 259q-164 0 -195 -259zM344 1008l96 299h225l-270 -299h-51z" />
<glyph unicode="&#xea;" horiz-adv-x="960" d="M82 389q0 100 31.5 184t88 144.5t134.5 94.5t170 34q84 0 148.5 -25.5t105.5 -66.5q35 -35 49 -70t23.5 -64.5t19.5 -52t37 -35.5v-57h-613q0 -86 23 -155.5t62.5 -118.5t96 -77t124.5 -28q129 0 258 144l39 -37q-78 -117 -179.5 -171.5t-236.5 -54.5q-106 0 -180 38 t-118 97.5t-63.5 132t-19.5 144.5zM194 975l191 399h186l193 -399h-86l-199 235l-199 -235h-86zM276 532h377q-25 258 -182 259q-164 0 -195 -259z" />
<glyph unicode="&#xeb;" horiz-adv-x="960" d="M82 389q0 100 31.5 184t88 144.5t134.5 94.5t170 34q84 0 148.5 -25.5t105.5 -66.5q35 -35 49 -70t23.5 -64.5t19.5 -52t37 -35.5v-57h-613q0 -86 23 -155.5t62.5 -118.5t96 -77t124.5 -28q129 0 258 144l39 -37q-78 -117 -179.5 -171.5t-236.5 -54.5q-106 0 -180 38 t-118 97.5t-63.5 132t-19.5 144.5zM219 1133q0 43 30.5 73.5t73.5 30.5t74 -30.5t31 -73.5t-31 -74t-74 -31t-73.5 31t-30.5 74zM276 532h377q-25 258 -182 259q-164 0 -195 -259zM534 1133q0 43 31 73.5t74 30.5t73.5 -30.5t30.5 -73.5t-30.5 -74t-73.5 -31t-74 31t-31 74z " />
<glyph unicode="&#xec;" horiz-adv-x="534" d="M14 0v51q86 -4 123 29t37 117v458q0 16 -3 28.5t-18.5 22t-47 16.5t-91.5 15v45l310 86h45v-649q0 -51 6 -84t23.5 -51t46 -25.5t73.5 -7.5v-51h-504zM82 1307h225l96 -299h-51z" />
<glyph unicode="&#xed;" horiz-adv-x="534" d="M14 0v51q86 -4 123 29t37 117v458q0 16 -3 28.5t-18.5 22t-47 16.5t-91.5 15v45l310 86h45v-649q0 -51 6 -84t23.5 -51t46 -25.5t73.5 -7.5v-51h-504zM131 1008l96 299h225l-270 -299h-51z" />
<glyph unicode="&#xee;" horiz-adv-x="534" d="M-19 975l191 399h186l193 -399h-86l-199 235l-199 -235h-86zM14 0v51q86 -4 123 29t37 117v458q0 16 -3 28.5t-18.5 22t-47 16.5t-91.5 15v45l310 86h45v-649q0 -51 6 -84t23.5 -51t46 -25.5t73.5 -7.5v-51h-504z" />
<glyph unicode="&#xef;" horiz-adv-x="534" d="M6 1133q0 43 30.5 73.5t73.5 30.5t74 -30.5t31 -73.5t-31 -74t-74 -31t-73.5 31t-30.5 74zM14 0v51q86 -4 123 29t37 117v458q0 16 -3 28.5t-18.5 22t-47 16.5t-91.5 15v45l310 86h45v-649q0 -51 6 -84t23.5 -51t46 -25.5t73.5 -7.5v-51h-504zM321 1133q0 43 31 73.5 t74 30.5t73.5 -30.5t30.5 -73.5t-30.5 -74t-73.5 -31t-74 31t-31 74z" />
<glyph unicode="&#xf0;" horiz-adv-x="1110" d="M82 426q0 115 45 194.5t113.5 130t147.5 73t147 22.5q47 0 98 -11.5t104 -52.5l4 4q-29 76 -76 154t-112 147l-289 -145l-41 72l266 135q-43 37 -92 69.5t-106 57.5l39 61q86 -23 157.5 -54.5t130.5 -70.5l250 125l41 -71l-217 -109q90 -74 153.5 -161t103.5 -179 t57.5 -183t17.5 -173q0 -139 -43 -232.5t-109.5 -148.5t-145.5 -79t-153 -24q-129 0 -222 34t-153.5 94.5t-88 142.5t-27.5 178zM291 479q0 -92 23.5 -172t63.5 -140.5t94 -94t116 -33.5q104 0 165.5 83t61.5 224q0 90 -23.5 170t-63.5 139.5t-93 94t-113 34.5 q-104 0 -167.5 -83t-63.5 -222z" />
<glyph unicode="&#xf1;" d="M23 0v51q76 0 105.5 34t29.5 118v366q0 41 -3 63.5t-16.5 36t-40 20.5t-75.5 16v51l278 90h51v-172q137 88 222 130t157 42q106 0 159.5 -79t53.5 -249q0 -125 -7 -205t-7 -131q0 -72 34.5 -101.5t118.5 -29.5v-51h-493v51q55 0 87 15.5t48 62.5t20.5 135t4.5 232 q0 117 -33 174t-107 57q-53 0 -112.5 -30.5t-145.5 -90.5v-397q0 -86 28 -122t109 -36v-51h-466zM274 1014q-4 49 9.5 92t38 74.5t57.5 49t67 17.5q45 0 79 -15t65 -34.5t61.5 -35t67.5 -15.5q49 0 74 100h36q6 -45 -5 -87t-33.5 -74.5t-56.5 -52t-75 -19.5q-43 0 -80.5 15 t-71.5 34.5t-63.5 35t-58.5 15.5q-35 0 -52.5 -32.5t-17.5 -67.5h-41z" />
<glyph unicode="&#xf2;" d="M84 418q0 98 33 177t94 134t147 86t193 31q129 0 220 -42t147.5 -105.5t82 -140.5t25.5 -144q0 -94 -35 -174t-97.5 -138.5t-148.5 -91.5t-186 -33q-109 0 -197 31t-149 88.5t-95 139.5t-34 182zM293 477q0 -92 23.5 -171t63.5 -137t94 -92t116 -34q104 0 165.5 81 t61.5 222q0 92 -23.5 172t-63.5 138.5t-93 91t-113 32.5q-104 0 -167.5 -82t-63.5 -221zM369 1307h225l96 -299h-51z" />
<glyph unicode="&#xf3;" d="M84 418q0 98 33 177t94 134t147 86t193 31q129 0 220 -42t147.5 -105.5t82 -140.5t25.5 -144q0 -94 -35 -174t-97.5 -138.5t-148.5 -91.5t-186 -33q-109 0 -197 31t-149 88.5t-95 139.5t-34 182zM293 477q0 -92 23.5 -171t63.5 -137t94 -92t116 -34q104 0 165.5 81 t61.5 222q0 92 -23.5 172t-63.5 138.5t-93 91t-113 32.5q-104 0 -167.5 -82t-63.5 -221zM418 1008l96 299h225l-270 -299h-51z" />
<glyph unicode="&#xf4;" d="M84 418q0 98 33 177t94 134t147 86t193 31q129 0 220 -42t147.5 -105.5t82 -140.5t25.5 -144q0 -94 -35 -174t-97.5 -138.5t-148.5 -91.5t-186 -33q-109 0 -197 31t-149 88.5t-95 139.5t-34 182zM268 975l191 399h186l193 -399h-86l-199 235l-199 -235h-86zM293 477 q0 -92 23.5 -171t63.5 -137t94 -92t116 -34q104 0 165.5 81t61.5 222q0 92 -23.5 172t-63.5 138.5t-93 91t-113 32.5q-104 0 -167.5 -82t-63.5 -221z" />
<glyph unicode="&#xf5;" d="M84 418q0 98 33 177t94 134t147 86t193 31q129 0 220 -42t147.5 -105.5t82 -140.5t25.5 -144q0 -94 -35 -174t-97.5 -138.5t-148.5 -91.5t-186 -33q-109 0 -197 31t-149 88.5t-95 139.5t-34 182zM274 1014q-4 49 9.5 92t38 74.5t57.5 49t67 17.5q45 0 79 -15t65 -34.5 t61.5 -35t67.5 -15.5q49 0 74 100h36q6 -45 -5 -87t-33.5 -74.5t-56.5 -52t-75 -19.5q-43 0 -80.5 15t-71.5 34.5t-63.5 35t-58.5 15.5q-35 0 -52.5 -32.5t-17.5 -67.5h-41zM293 477q0 -92 23.5 -171t63.5 -137t94 -92t116 -34q104 0 165.5 81t61.5 222q0 92 -23.5 172 t-63.5 138.5t-93 91t-113 32.5q-104 0 -167.5 -82t-63.5 -221z" />
<glyph unicode="&#xf6;" d="M84 418q0 98 33 177t94 134t147 86t193 31q129 0 220 -42t147.5 -105.5t82 -140.5t25.5 -144q0 -94 -35 -174t-97.5 -138.5t-148.5 -91.5t-186 -33q-109 0 -197 31t-149 88.5t-95 139.5t-34 182zM293 477q0 -92 23.5 -171t63.5 -137t94 -92t116 -34q104 0 165.5 81 t61.5 222q0 92 -23.5 172t-63.5 138.5t-93 91t-113 32.5q-104 0 -167.5 -82t-63.5 -221zM293 1133q0 43 30.5 73.5t73.5 30.5t74 -30.5t31 -73.5t-31 -74t-74 -31t-73.5 31t-30.5 74zM608 1133q0 43 31 73.5t74 30.5t73.5 -30.5t30.5 -73.5t-30.5 -74t-73.5 -31t-74 31 t-31 74z" />
<glyph unicode="&#xf7;" horiz-adv-x="1366" d="M209 508v137h948v-137h-948zM598 223q0 35 25.5 59.5t60.5 24.5t59.5 -24.5t24.5 -59.5t-24.5 -60.5t-59.5 -25.5t-60.5 25.5t-25.5 60.5zM598 932q0 35 25.5 59.5t60.5 24.5t59.5 -24.5t24.5 -59.5t-24.5 -60.5t-59.5 -25.5t-60.5 25.5t-25.5 60.5z" />
<glyph unicode="&#xf8;" d="M84 418q0 98 33 177t94 134t147 86t193 31q76 0 156.5 -19.5t138.5 -64.5l125 129l51 -49l-121 -125q68 -68 96.5 -148t28.5 -155q0 -94 -35 -174t-97.5 -138.5t-148.5 -91.5t-186 -33q-86 0 -164 20.5t-131 59.5l-129 -133l-49 51l123 127q-125 115 -125 316zM293 477 q0 -45 9 -112.5t38 -126.5l393 407q-41 70 -95 102.5t-114 32.5q-57 0 -101 -23.5t-72.5 -65.5t-43 -97t-14.5 -117zM375 172q41 -59 96 -94t119 -35q111 0 169 84t58 219q0 59 -12 124t-35 112z" />
<glyph unicode="&#xf9;" d="M41 739v45l270 62h51v-549q0 -84 34 -139.5t124 -55.5q43 0 94.5 24t130.5 79v420q0 33 -4 53t-22.5 33.5t-53 21.5t-96.5 15v49l320 49h51v-651q0 -63 9 -81t42 -18q16 0 34.5 3t51.5 10v-52l-284 -80h-48v156q-70 -45 -121 -74.5t-93 -48t-75.5 -26t-68.5 -7.5 q-113 0 -166 73t-53 192v364q0 39 -2 61.5t-14.5 35t-38 20.5t-72.5 16zM369 1307h225l96 -299h-51z" />
<glyph unicode="&#xfa;" d="M41 739v45l270 62h51v-549q0 -84 34 -139.5t124 -55.5q43 0 94.5 24t130.5 79v420q0 33 -4 53t-22.5 33.5t-53 21.5t-96.5 15v49l320 49h51v-651q0 -63 9 -81t42 -18q16 0 34.5 3t51.5 10v-52l-284 -80h-48v156q-70 -45 -121 -74.5t-93 -48t-75.5 -26t-68.5 -7.5 q-113 0 -166 73t-53 192v364q0 39 -2 61.5t-14.5 35t-38 20.5t-72.5 16zM418 1008l96 299h225l-270 -299h-51z" />
<glyph unicode="&#xfb;" d="M41 739v45l270 62h51v-549q0 -84 34 -139.5t124 -55.5q43 0 94.5 24t130.5 79v420q0 33 -4 53t-22.5 33.5t-53 21.5t-96.5 15v49l320 49h51v-651q0 -63 9 -81t42 -18q16 0 34.5 3t51.5 10v-52l-284 -80h-48v156q-70 -45 -121 -74.5t-93 -48t-75.5 -26t-68.5 -7.5 q-113 0 -166 73t-53 192v364q0 39 -2 61.5t-14.5 35t-38 20.5t-72.5 16zM268 975l191 399h186l193 -399h-86l-199 235l-199 -235h-86z" />
<glyph unicode="&#xfc;" d="M41 739v45l270 62h51v-549q0 -84 34 -139.5t124 -55.5q43 0 94.5 24t130.5 79v420q0 33 -4 53t-22.5 33.5t-53 21.5t-96.5 15v49l320 49h51v-651q0 -63 9 -81t42 -18q16 0 34.5 3t51.5 10v-52l-284 -80h-48v156q-70 -45 -121 -74.5t-93 -48t-75.5 -26t-68.5 -7.5 q-113 0 -166 73t-53 192v364q0 39 -2 61.5t-14.5 35t-38 20.5t-72.5 16zM293 1133q0 43 30.5 73.5t73.5 30.5t74 -30.5t31 -73.5t-31 -74t-74 -31t-73.5 31t-30.5 74zM608 1133q0 43 31 73.5t74 30.5t73.5 -30.5t30.5 -73.5t-30.5 -74t-73.5 -31t-74 31t-31 74z" />
<glyph unicode="&#xfd;" horiz-adv-x="995" d="M-4 772v51h479v-51q-70 0 -94.5 -14.5t-24.5 -42.5q0 -16 6.5 -34.5t22.5 -51.5l193 -402l143 320q25 53 35 89t10 58q0 45 -30.5 61.5t-98.5 16.5v51h362v-51q-61 -2 -96 -36t-76 -126l-374 -837q-57 -129 -109.5 -188.5t-118.5 -59.5q-47 0 -77.5 29.5t-30.5 74.5 q0 49 26.5 68.5t63.5 30t78 19.5t71 40q8 8 18.5 19.5t24 34t33 60.5t43.5 99l-301 629q-25 49 -41 77.5t-34.5 43t-42 18.5t-60.5 4zM363 1008l96 299h225l-270 -299h-51z" />
<glyph unicode="&#xfe;" horiz-adv-x="1071" d="M-6 -424q86 0 121 33t35 127v1368q0 29 -3.5 45t-15.5 26.5t-36.5 15.5t-67.5 11v51l268 121h49v-672q115 72 194.5 104t139.5 32q72 0 127 -31t95 -82t60.5 -118.5t20.5 -143.5q0 -111 -46 -199t-116.5 -150.5t-154.5 -95t-162 -32.5q-37 0 -73 6t-85 22v-272 q0 -55 7 -89t26.5 -50.5t56.5 -21.5t96 -5v-51h-536v51zM344 182q104 -115 225 -114q43 0 82 19t70 57t49 93.5t18 124.5q0 92 -23.5 159t-60 112t-81.5 66.5t-86 21.5t-85 -17.5t-108 -58.5v-463z" />
<glyph unicode="&#xff;" horiz-adv-x="995" d="M-4 772v51h479v-51q-70 0 -94.5 -14.5t-24.5 -42.5q0 -16 6.5 -34.5t22.5 -51.5l193 -402l143 320q25 53 35 89t10 58q0 45 -30.5 61.5t-98.5 16.5v51h362v-51q-61 -2 -96 -36t-76 -126l-374 -837q-57 -129 -109.5 -188.5t-118.5 -59.5q-47 0 -77.5 29.5t-30.5 74.5 q0 49 26.5 68.5t63.5 30t78 19.5t71 40q8 8 18.5 19.5t24 34t33 60.5t43.5 99l-301 629q-25 49 -41 77.5t-34.5 43t-42 18.5t-60.5 4zM238 1133q0 43 30.5 73.5t73.5 30.5t74 -30.5t31 -73.5t-31 -74t-74 -31t-73.5 31t-30.5 74zM553 1133q0 43 31 73.5t74 30.5t73.5 -30.5 t30.5 -73.5t-30.5 -74t-73.5 -31t-74 31t-31 74z" />
<glyph unicode="&#x152;" horiz-adv-x="2066" d="M106 610q0 123 45.5 245t134.5 218t219 155.5t300 59.5q47 0 84 -1t80 -5q41 -4 95 -6t136 -2h707l18 -307h-55q-14 74 -27.5 116.5t-33 64t-47 28t-68.5 6.5h-383v-477h303q45 0 72.5 4t44 20t24.5 47t12 84h56v-411h-56q-6 55 -14 86.5t-25.5 49t-44 22.5t-69.5 5h-303 v-372q0 -47 4 -77t17.5 -45.5t37 -20.5t62.5 -5h210q78 0 128.5 8.5t82 33t52 69.5t41.5 119h55l-31 -322h-926q-72 0 -139 -6q-35 -4 -64.5 -6t-56.5 -2q-147 0 -271 47t-215 130t-141.5 197.5t-50.5 249.5zM342 657q0 -158 49 -275.5t135 -203.5q127 -127 289 -127 q123 0 195.5 71t72.5 212v674q0 100 -72.5 157.5t-215.5 57.5q-104 0 -174 -29t-117 -76q-43 -43 -74 -98t-50.5 -115.5t-28.5 -124t-9 -123.5z" />
<glyph unicode="&#x153;" horiz-adv-x="1587" d="M119 397q0 94 34.5 176t96 142.5t144.5 95.5t177 35q174 0 306 -123q109 123 286 123q72 0 136.5 -22.5t109.5 -67.5q41 -41 56.5 -80t23.5 -71t18.5 -53.5t36.5 -29.5v-47h-561q0 -70 20.5 -137.5t56.5 -118.5t85 -83t108 -32q123 0 238 134l31 -35 q-90 -111 -191.5 -168.5t-202.5 -57.5q-74 0 -131 29t-108 94q-119 -123 -311 -123q-98 0 -182.5 32t-146 89.5t-96 134t-34.5 164.5zM326 481q0 -88 22.5 -168t61.5 -139t90 -95t108 -36q92 0 142.5 80t50.5 209q0 90 -21.5 171t-56.5 142.5t-82 98t-98 36.5 q-96 0 -156.5 -84t-60.5 -215zM983 532h330q-6 115 -52.5 184.5t-113.5 69.5q-66 0 -110 -68.5t-54 -185.5z" />
<glyph unicode="&#x178;" horiz-adv-x="1513" d="M25 1219v55h616v-55q-84 0 -113.5 -15.5t-29.5 -44.5q0 -20 14 -50t55 -87l269 -383l233 371q35 57 51.5 90t16.5 55q0 35 -31 49.5t-100 14.5v55h481v-55q-55 -6 -94 -17.5t-72 -37t-67.5 -73t-84.5 -126.5l-276 -447v-285q0 -57 6 -92t26.5 -54t59.5 -25.5t102 -6.5 v-55h-618v55q59 0 97 5.5t59.5 23.5t31 55t9.5 101v260l-385 553q-39 55 -66 86.5t-53.5 49t-58 23t-78.5 7.5zM496 1536q0 43 30.5 73.5t73.5 30.5t74 -30.5t31 -73.5t-31 -74t-74 -31t-73.5 31t-30.5 74zM811 1536q0 43 31 73.5t74 30.5t73.5 -30.5t30.5 -73.5t-30.5 -74 t-73.5 -31t-74 31t-31 74z" />
<glyph unicode="&#x2c6;" horiz-adv-x="681" d="M55 975l191 399h186l193 -399h-86l-199 235l-199 -235h-86z" />
<glyph unicode="&#x2dc;" horiz-adv-x="681" d="M61 1014q-4 49 9.5 92t38 74.5t57.5 49t67 17.5q45 0 79 -15t65 -34.5t61.5 -35t67.5 -15.5q49 0 74 100h36q6 -45 -5 -87t-33.5 -74.5t-56.5 -52t-75 -19.5q-43 0 -80.5 15t-71.5 34.5t-63.5 35t-58.5 15.5q-35 0 -52.5 -32.5t-17.5 -67.5h-41z" />
<glyph unicode="&#x2000;" horiz-adv-x="888" />
<glyph unicode="&#x2001;" horiz-adv-x="1777" />
<glyph unicode="&#x2002;" horiz-adv-x="888" />
<glyph unicode="&#x2003;" horiz-adv-x="1777" />
<glyph unicode="&#x2004;" horiz-adv-x="592" />
<glyph unicode="&#x2005;" horiz-adv-x="444" />
<glyph unicode="&#x2006;" horiz-adv-x="296" />
<glyph unicode="&#x2007;" horiz-adv-x="296" />
<glyph unicode="&#x2008;" horiz-adv-x="222" />
<glyph unicode="&#x2009;" horiz-adv-x="355" />
<glyph unicode="&#x200a;" horiz-adv-x="98" />
<glyph unicode="&#x2010;" horiz-adv-x="794" d="M55 326v170h682v-170h-682z" />
<glyph unicode="&#x2011;" horiz-adv-x="794" d="M55 326v170h682v-170h-682z" />
<glyph unicode="&#x2012;" horiz-adv-x="794" d="M55 326v170h682v-170h-682z" />
<glyph unicode="&#x2013;" horiz-adv-x="1024" d="M-12 362v160h1048v-160h-1048z" />
<glyph unicode="&#x2014;" horiz-adv-x="2048" d="M-12 362v160h2072v-160h-2072z" />
<glyph unicode="&#x2018;" horiz-adv-x="591" d="M139 1055q0 111 73 195.5t202 123.5l18 -39q-80 -39 -123 -86t-43 -98q0 -33 27 -33q8 0 21.5 2t19.5 2q51 0 85 -34.5t34 -88.5q0 -59 -41 -98t-107 -39q-74 0 -120 53.5t-46 139.5z" />
<glyph unicode="&#x2019;" horiz-adv-x="591" d="M139 1237q0 59 41 98t107 39q74 0 120 -53t46 -139q0 -111 -73 -196t-202 -124l-18 39q80 39 123 86t43 98q0 33 -27 33q-8 0 -21.5 -2t-19.5 -2q-51 0 -85 35t-34 88z" />
<glyph unicode="&#x201a;" horiz-adv-x="591" d="M139 72q0 59 41 98t107 39q74 0 120 -53.5t46 -139.5q0 -111 -73 -195.5t-202 -123.5l-18 39q80 39 123 86t43 98q0 33 -27 33q-8 0 -21.5 -2t-19.5 -2q-51 0 -85 34.5t-34 88.5z" />
<glyph unicode="&#x201c;" horiz-adv-x="1071" d="M145 1055q0 111 73 195.5t202 123.5l18 -39q-80 -39 -123 -86t-43 -98q0 -33 27 -33q8 0 21.5 2t19.5 2q51 0 85 -34.5t34 -88.5q0 -59 -41 -98t-107 -39q-74 0 -120 53.5t-46 139.5zM614 1055q0 111 73 195.5t202 123.5l18 -39q-80 -39 -123 -86t-43 -98q0 -33 27 -33 q8 0 21.5 2t19.5 2q51 0 85 -34.5t34 -88.5q0 -59 -41 -98t-107 -39q-74 0 -120 53.5t-46 139.5z" />
<glyph unicode="&#x201d;" horiz-adv-x="1071" d="M143 1237q0 59 41 98t107 39q74 0 120 -53t46 -139q0 -111 -73 -196t-202 -124l-18 39q80 39 123 86t43 98q0 33 -27 33q-8 0 -21.5 -2t-19.5 -2q-51 0 -85 35t-34 88zM612 1237q0 59 41 98t107 39q74 0 120 -53t46 -139q0 -111 -73 -196t-202 -124l-18 39q80 39 123 86 t43 98q0 33 -27 33q-8 0 -21.5 -2t-19.5 -2q-51 0 -85 35t-34 88z" />
<glyph unicode="&#x201e;" horiz-adv-x="1071" d="M143 72q0 59 41 98t107 39q74 0 120 -53.5t46 -139.5q0 -111 -73 -195.5t-202 -123.5l-18 39q80 39 123 86t43 98q0 33 -27 33q-8 0 -21.5 -2t-19.5 -2q-51 0 -85 34.5t-34 88.5zM612 72q0 59 41 98t107 39q74 0 120 -53.5t46 -139.5q0 -111 -73 -195.5t-202 -123.5 l-18 39q80 39 123 86t43 98q0 33 -27 33q-8 0 -21.5 -2t-19.5 -2q-51 0 -85 34.5t-34 88.5z" />
<glyph unicode="&#x2022;" horiz-adv-x="716" d="M127 586q0 49 18.5 91t50 72.5t73.5 49t91 18.5t91.5 -18.5t73 -49t49 -72.5t18.5 -91t-18.5 -91t-49 -74t-72.5 -50.5t-92 -18.5q-49 0 -91 18.5t-73.5 50.5t-50 74t-18.5 91z" />
<glyph unicode="&#x2026;" horiz-adv-x="1771" d="M158 90q0 53 39 86t98 33t97 -33t38 -86t-37 -83t-98 -30q-63 0 -100 30t-37 83zM750 90q0 53 39 86t98 33t97 -33t38 -86q0 -51 -37 -82t-98 -31q-63 0 -100 30t-37 83zM1341 90q0 53 39.5 86t98.5 33t97 -33t38 -86t-37 -83t-98 -30q-63 0 -100.5 30t-37.5 83z" />
<glyph unicode="&#x202f;" horiz-adv-x="355" />
<glyph unicode="&#x2039;" horiz-adv-x="534" d="M74 449l336 374h53l-193 -374l193 -377h-53z" />
<glyph unicode="&#x203a;" horiz-adv-x="534" d="M72 72l194 377l-194 374h55l336 -374l-336 -377h-55z" />
<glyph unicode="&#x205f;" horiz-adv-x="444" />
<glyph unicode="&#x2122;" horiz-adv-x="2048" d="M53 1174l21 200h729l22 -200h-34q-12 78 -54.5 109.5t-138.5 31.5h-72v-582q0 -41 3 -65.5t14.5 -38t32 -19.5t53.5 -8v-35h-375v35q35 4 54.5 9t30.5 19.5t14 38t3 64.5v582h-80q-92 0 -132 -31t-56 -110h-35zM893 567v35q37 0 59.5 5t34.5 18.5t16.5 39t4.5 68.5v467 q0 47 -4.5 73.5t-16.5 41t-34.5 18.5t-59.5 4v37h289l272 -573l264 573h279v-37q-37 0 -58.5 -5t-33 -19.5t-14.5 -41t-3 -71.5v-467q0 -43 3 -67.5t14.5 -38t33 -18.5t58.5 -7v-35h-400v35q39 0 62.5 5t37 19.5t17.5 40t4 66.5v492h-4l-303 -658h-33l-305 650h-4v-484 q0 -82 18.5 -106.5t77.5 -24.5h37v-35h-309z" />
<glyph unicode="&#x25fc;" horiz-adv-x="819" d="M0 0v819h819v-819h-819z" />
<glyph unicode="&#xfb01;" horiz-adv-x="1218" d="M45 0v51q90 0 122 34t32 114v518h-154v51q39 10 75 21.5t79 33.5q4 139 51 241.5t123 172.5t172 103.5t194 33.5q49 0 95.5 -9t83 -24.5t58 -35t21.5 -39.5q0 -14 -16 -35t-38.5 -39t-44 -30.5t-34.5 -12.5q-20 0 -46.5 19.5t-60.5 44t-76 44t-91 19.5 q-98 0 -147.5 -71.5t-49.5 -194.5v-187h264l21 -106h-285v-504q0 -49 6.5 -81t28 -49t63 -24.5t111.5 -7.5v-51h-557zM696 0v51q82 0 112 36t30 114v438q0 51 -22.5 67.5t-100.5 26.5v64l317 75v-657q0 -88 27.5 -126t122.5 -38v-51h-486z" />
<glyph unicode="&#xfb02;" d="M29 717v51q47 14 75.5 26.5t59.5 28.5q0 121 34.5 217.5t98 163t147.5 102t183 35.5q10 0 29.5 -1t40 -2t38 -2t23.5 -1q39 0 65.5 8.5t57.5 30.5h57v-1165q0 -88 29.5 -123t117.5 -35v-51h-491v51q78 0 113.5 27.5t35.5 120.5v518h-385v-506q0 -92 30 -126t118 -34v-51 h-465v51q68 0 95.5 37t27.5 129v500h-135zM358 823h385v334q-59 53 -110 78t-105 25q-51 0 -83.5 -23t-52 -62.5t-27 -96t-7.5 -126.5v-129z" />
</font>
</defs>
</svg>
